<?xml version="1.0" encoding="UTF-8" standalone="no"?>
<!-- Created with Inkscape (http://www.inkscape.org/) -->

<svg
   width="512"
   height="512"
   viewBox="0 0 512 512"
   version="1.1"
   id="svg1"
   xml:space="preserve"
   sodipodi:docname="UnityToGodot5.svg"
   inkscape:version="1.3 (0e150ed6c4, 2023-07-21)"
   inkscape:export-filename="UnityToGodot.png"
   inkscape:export-xdpi="192"
   inkscape:export-ydpi="192"
   xmlns:inkscape="http://www.inkscape.org/namespaces/inkscape"
   xmlns:sodipodi="http://sodipodi.sourceforge.net/DTD/sodipodi-0.dtd"
   xmlns="http://www.w3.org/2000/svg"
   xmlns:svg="http://www.w3.org/2000/svg"><sodipodi:namedview
     id="namedview1"
     pagecolor="#ffffff"
     bordercolor="#000000"
     borderopacity="0.25"
     inkscape:showpageshadow="2"
     inkscape:pageopacity="0.0"
     inkscape:pagecheckerboard="0"
     inkscape:deskcolor="#d1d1d1"
     inkscape:document-units="px"
     inkscape:zoom="1.6191406"
     inkscape:cx="256"
     inkscape:cy="256"
     inkscape:window-width="1920"
     inkscape:window-height="993"
     inkscape:window-x="0"
     inkscape:window-y="0"
     inkscape:window-maximized="1"
     inkscape:current-layer="layer1" /><defs
     id="defs1"><inkscape:path-effect
       effect="mirror_symmetry"
       start_point="255.9854,-16.97444"
       end_point="255.9854,495.02556"
       center_point="255.9854,239.02556"
       id="path-effect9"
       is_visible="true"
       lpeversion="1.2"
       lpesatellites=""
       mode="vertical"
       discard_orig_path="false"
       fuse_paths="false"
       oposite_fuse="false"
       split_items="false"
       split_open="false"
       link_styles="false" /><inkscape:path-effect
       effect="mirror_symmetry"
       start_point="256,-16.974926"
       end_point="256,495.02507"
       center_point="256,239.02507"
       id="path-effect50"
       is_visible="true"
       lpeversion="1.2"
       lpesatellites=""
       mode="vertical"
       discard_orig_path="false"
       fuse_paths="false"
       oposite_fuse="false"
       split_items="false"
       split_open="false"
       link_styles="false" /><inkscape:path-effect
       effect="mirror_symmetry"
       start_point="256,0"
       end_point="256,512"
       center_point="256,256"
       id="path-effect49"
       is_visible="true"
       lpeversion="1.2"
       lpesatellites=""
       mode="vertical"
       discard_orig_path="false"
       fuse_paths="false"
       oposite_fuse="false"
       split_items="false"
       split_open="false"
       link_styles="false" /><inkscape:path-effect
       effect="mirror_symmetry"
       start_point="409.46952,930.67931"
       end_point="409.46952,1858.6793"
       center_point="409.46952,1394.6793"
       id="path-effect29"
       is_visible="true"
       lpeversion="1.2"
       lpesatellites=""
       mode="vertical"
       discard_orig_path="false"
       fuse_paths="false"
       oposite_fuse="false"
       split_items="false"
       split_open="false"
       link_styles="false" /><inkscape:path-effect
       effect="mirror_symmetry"
       start_point="199.43146,-66.118847"
       end_point="199.43146,445.88115"
       center_point="199.43146,189.88115"
       id="path-effect27"
       is_visible="true"
       lpeversion="1.2"
       lpesatellites=""
       mode="vertical"
       discard_orig_path="false"
       fuse_paths="false"
       oposite_fuse="false"
       split_items="false"
       split_open="false"
       link_styles="false" /><inkscape:path-effect
       effect="mirror_symmetry"
       start_point="199.43146,-66.118847"
       end_point="199.43146,445.88115"
       center_point="199.43146,189.88115"
       id="path-effect25"
       is_visible="true"
       lpeversion="1.2"
       lpesatellites=""
       mode="vertical"
       discard_orig_path="false"
       fuse_paths="false"
       oposite_fuse="false"
       split_items="false"
       split_open="false"
       link_styles="false" /><inkscape:path-effect
       effect="mirror_symmetry"
       start_point="254,138.02507"
       end_point="254,650.02507"
       center_point="254,394.02507"
       id="path-effect8"
       is_visible="true"
       lpeversion="1.2"
       lpesatellites=""
       mode="vertical"
       discard_orig_path="false"
       fuse_paths="false"
       oposite_fuse="false"
       split_items="false"
       split_open="false"
       link_styles="false" /><inkscape:path-effect
       effect="slice"
       start_point="256,279.92773"
       end_point="256,53.752163"
       center_point="256,166.83995"
       id="path-effect6"
       is_visible="true"
       lpeversion="1.2"
       lpesatellites=""
       allow_transforms="true" /><inkscape:path-effect
       effect="mirror_symmetry"
       start_point="512,1019.7527"
       end_point="512,1947.7527"
       center_point="512,1483.7527"
       id="path-effect18"
       is_visible="true"
       lpeversion="1.2"
       lpesatellites=""
       mode="vertical"
       discard_orig_path="false"
       fuse_paths="false"
       oposite_fuse="false"
       split_items="false"
       split_open="false"
       link_styles="false" /><inkscape:path-effect
       effect="mirror_symmetry"
       start_point="256,-16.974926"
       end_point="256,495.02507"
       center_point="256,239.02507"
       id="path-effect16"
       is_visible="true"
       lpeversion="1.2"
       lpesatellites=""
       mode="vertical"
       discard_orig_path="false"
       fuse_paths="false"
       oposite_fuse="false"
       split_items="false"
       split_open="false"
       link_styles="false" /><inkscape:path-effect
       effect="mirror_symmetry"
       start_point="256,0"
       end_point="256,512"
       center_point="256,256"
       id="path-effect7"
       is_visible="true"
       lpeversion="1.2"
       lpesatellites=""
       mode="vertical"
       discard_orig_path="false"
       fuse_paths="false"
       oposite_fuse="false"
       split_items="false"
       split_open="false"
       link_styles="false" /><inkscape:path-effect
       effect="mirror_symmetry"
       start_point="256,-16.974926"
       end_point="256,495.02507"
       center_point="256,239.02507"
       id="path-effect1"
       is_visible="true"
       lpeversion="1.2"
       lpesatellites=""
       mode="vertical"
       discard_orig_path="false"
       fuse_paths="false"
       oposite_fuse="false"
       split_items="false"
       split_open="false"
       link_styles="false" /><inkscape:path-effect
       effect="mirror_symmetry"
       start_point="256,0"
       end_point="256,512"
       center_point="256,256"
       id="path-effect17"
       is_visible="true"
       lpeversion="1.2"
       lpesatellites=""
       mode="vertical"
       discard_orig_path="false"
       fuse_paths="false"
       oposite_fuse="false"
       split_items="false"
       split_open="false"
       link_styles="false" /><inkscape:path-effect
       effect="fillet_chamfer"
       id="path-effect15"
       is_visible="true"
       lpeversion="1"
       nodesatellites_param="F,0,0,1,0,0,0,1 @ F,0,0,1,0,0,0,1 @ F,0,0,1,0,0,0,1 @ F,0,0,1,0,0,0,1 @ F,0,0,1,0,0,0,1 @ F,0,0,1,0,0,0,1 @ F,0,0,1,0,0,0,1 @ F,0,0,1,0,0,0,1 @ F,0,0,1,0,0,0,1 @ F,0,0,1,0,0,0,1 @ F,0,0,1,0,0,0,1 @ F,0,0,1,0,0,0,1 @ F,0,0,1,0,0,0,1 @ F,0,0,1,0,0,0,1 @ F,0,0,1,0,0,0,1 @ F,0,0,1,0,0,0,1 @ F,0,0,1,0,0,0,1 @ F,0,0,1,0,0,0,1 @ F,0,0,1,0,0,0,1 @ F,0,0,1,0,0,0,1 @ F,0,0,1,0,0,0,1 @ F,0,0,1,0,0,0,1 @ F,0,0,1,0,5.7074491,0,1 @ F,0,0,1,0,0,0,1 @ F,0,0,1,0,0,0,1 @ F,0,0,1,0,0,0,1 @ F,0,0,1,0,0,0,1 @ F,0,0,1,0,0,0,1 @ F,0,0,1,0,0,0,1 @ F,0,0,1,0,0,0,1 @ F,0,0,1,0,0,0,1 @ F,0,0,1,0,0,0,1 @ F,0,0,1,0,0,0,1 @ F,0,0,1,0,0,0,1 @ F,0,0,1,0,0,0,1 @ F,0,0,1,0,0,0,1 @ F,0,0,1,0,0,0,1 @ F,0,0,1,0,0,0,1 @ F,0,0,1,0,0,0,1 @ F,0,0,1,0,0,0,1 @ F,0,0,1,0,0,0,1 @ F,0,0,1,0,0,0,1 @ F,0,0,1,0,0,0,1 @ F,0,0,1,0,0,0,1 @ F,0,0,1,0,0,0,1 @ F,0,0,1,0,0,0,1 @ F,0,0,1,0,0,0,1 @ F,0,0,1,0,0,0,1 @ F,0,0,1,0,0,0,1 @ F,0,0,1,0,0,0,1 @ F,0,0,1,0,0,0,1 @ F,0,0,1,0,0,0,1 @ F,0,0,1,0,0,0,1 @ F,0,0,1,0,0,0,1 @ F,0,0,1,0,0,0,1 @ F,0,0,1,0,0,0,1 @ F,0,0,1,0,0,0,1 @ F,0,0,1,0,0,0,1 @ F,0,0,1,0,0,0,1 @ F,0,0,1,0,0,0,1 @ F,0,0,1,0,0,0,1 @ F,0,0,1,0,0,0,1 @ F,0,0,1,0,0,0,1 @ F,0,0,1,0,0,0,1 @ F,0,0,1,0,0,0,1 @ F,0,0,1,0,0,0,1 @ F,0,0,1,0,0,0,1 @ F,0,0,1,0,0,0,1 @ F,0,0,1,0,0,0,1 @ F,0,0,1,0,0,0,1"
       radius="0"
       unit="px"
       method="auto"
       mode="F"
       chamfer_steps="1"
       flexible="false"
       use_knot_distance="true"
       apply_no_radius="true"
       apply_with_radius="true"
       only_selected="false"
       hide_knots="false" /><inkscape:path-effect
       effect="mirror_symmetry"
       start_point="256,0"
       end_point="256,512"
       center_point="256,256"
       id="path-effect13"
       is_visible="true"
       lpeversion="1.2"
       lpesatellites=""
       mode="vertical"
       discard_orig_path="false"
       fuse_paths="false"
       oposite_fuse="false"
       split_items="false"
       split_open="false"
       link_styles="false" /><inkscape:path-effect
       effect="fillet_chamfer"
       id="path-effect12"
       is_visible="true"
       lpeversion="1"
       nodesatellites_param="F,0,0,1,0,0,0,1 @ F,0,0,1,0,0,0,1 @ F,0,0,1,0,0,0,1 @ F,0,0,1,0,0,0,1 @ F,0,0,1,0,0,0,1 @ F,0,0,1,0,0,0,1 @ F,0,0,1,0,0,0,1 @ F,0,0,1,0,0,0,1 @ F,0,0,1,0,0,0,1 @ F,0,0,1,0,0,0,1 @ F,0,0,1,0,0,0,1 @ F,0,0,1,0,0,0,1 @ F,0,0,1,0,0,0,1 @ F,0,0,1,0,0,0,1 @ F,0,0,1,0,0,0,1 @ F,0,0,1,0,0,0,1 @ F,0,0,1,0,0,0,1 @ F,0,0,1,0,0,0,1 @ F,0,0,1,0,0,0,1 @ F,0,0,1,0,0,0,1 @ F,0,0,1,0,0,0,1 @ F,0,0,1,0,0,0,1 @ F,0,0,1,0,5.7074491,0,1 @ F,0,0,1,0,0,0,1 @ F,0,0,1,0,0,0,1 @ F,0,0,1,0,0,0,1 @ F,0,0,1,0,0,0,1 @ F,0,0,1,0,0,0,1 @ F,0,0,1,0,0,0,1 @ F,0,0,1,0,0,0,1 @ F,0,0,1,0,0,0,1 @ F,0,0,1,0,0,0,1 @ F,0,0,1,0,0,0,1 @ F,0,0,1,0,0,0,1 @ F,0,0,1,0,0,0,1 @ F,0,0,1,0,0,0,1 @ F,0,0,1,0,0,0,1 @ F,0,0,1,0,0,0,1 @ F,0,0,1,0,0,0,1 @ F,0,0,1,0,0,0,1 @ F,0,0,1,0,0,0,1 @ F,0,0,1,0,0,0,1 @ F,0,0,1,0,0,0,1 @ F,0,0,1,0,0,0,1 @ F,0,0,1,0,0,0,1 @ F,0,0,1,0,0,0,1 @ F,0,0,1,0,0,0,1 @ F,0,0,1,0,0,0,1 @ F,0,0,1,0,0,0,1 @ F,0,0,1,0,0,0,1 @ F,0,0,1,0,0,0,1 @ F,0,0,1,0,0,0,1 @ F,0,0,1,0,0,0,1 @ F,0,0,1,0,0,0,1 @ F,0,0,1,0,0,0,1 @ F,0,0,1,0,0,0,1 @ F,0,0,1,0,0,0,1 @ F,0,0,1,0,0,0,1 @ F,0,0,1,0,0,0,1 @ F,0,0,1,0,0,0,1 @ F,0,0,1,0,0,0,1 @ F,0,0,1,0,0,0,1 @ F,0,0,1,0,0,0,1 @ F,0,0,1,0,0,0,1 @ F,0,0,1,0,0,0,1 @ F,0,0,1,0,0,0,1 @ F,0,0,1,0,0,0,1 @ F,0,0,1,0,0,0,1 @ F,0,0,1,0,0,0,1 @ F,0,0,1,0,0,0,1"
       radius="0"
       unit="px"
       method="auto"
       mode="F"
       chamfer_steps="1"
       flexible="false"
       use_knot_distance="true"
       apply_no_radius="true"
       apply_with_radius="true"
       only_selected="false"
       hide_knots="false" /><inkscape:path-effect
       effect="fillet_chamfer"
       id="path-effect11"
       is_visible="true"
       lpeversion="1"
       nodesatellites_param="F,0,0,1,0,0,0,1 @ F,0,0,1,0,0,0,1 @ F,0,0,1,0,0,0,1 @ F,0,0,1,0,0,0,1 @ F,0,0,1,0,0,0,1 @ F,0,0,1,0,0,0,1 @ F,0,0,1,0,0,0,1 @ F,0,0,1,0,0,0,1 @ F,0,0,1,0,0,0,1 @ F,0,0,1,0,0,0,1 @ F,0,0,1,0,0,0,1 @ F,0,0,1,0,0,0,1 @ F,0,0,1,0,0,0,1 @ F,0,0,1,0,0,0,1 @ F,0,0,1,0,0,0,1 @ F,0,0,1,0,0,0,1 @ F,0,0,1,0,0,0,1 @ F,0,0,1,0,0,0,1 @ F,0,0,1,0,0,0,1 @ F,0,0,1,0,0,0,1 @ F,0,0,1,0,0,0,1 @ F,0,0,1,0,0,0,1 @ F,0,0,1,0,0,0,1 @ F,0,0,1,0,0,0,1 @ F,0,0,1,0,0,0,1 @ F,0,0,1,0,0,0,1 @ F,0,0,1,0,0,0,1 @ F,0,0,1,0,0,0,1 @ F,0,0,1,0,0,0,1 @ F,0,0,1,0,0,0,1 @ F,0,0,1,0,0,0,1 @ F,0,0,1,0,0,0,1 @ F,0,0,1,0,0,0,1 @ F,0,0,1,0,0,0,1 @ F,0,0,1,0,0,0,1 @ F,0,0,1,0,0,0,1 @ F,0,0,1,0,0,0,1 @ F,0,0,1,0,0,0,1 @ F,0,0,1,0,0,0,1 @ F,0,0,1,0,0,0,1 @ F,0,0,1,0,0,0,1 @ F,0,0,1,0,0,0,1 @ F,0,0,1,0,0,0,1 @ F,0,0,1,0,0,0,1 @ F,0,0,1,0,0,0,1 @ F,0,0,1,0,0,0,1 @ F,0,0,1,0,0,0,1 @ F,0,0,1,0,0,0,1 @ F,0,0,1,0,0,0,1 @ F,0,0,1,0,0,0,1 @ F,0,0,1,0,0,0,1 @ F,0,0,1,0,0,0,1 @ F,0,0,1,0,0,0,1 @ F,0,0,1,0,0,0,1 @ F,0,0,1,0,0,0,1 @ F,0,0,1,0,0,0,1 @ F,0,0,1,0,0,0,1 @ F,0,0,1,0,0,0,1 @ F,0,0,1,0,0,0,1 @ F,0,0,1,0,0,0,1 @ F,0,0,1,0,0,0,1 @ F,0,0,1,0,0,0,1 @ F,0,0,1,0,0,0,1 @ F,0,0,1,0,0,0,1 @ F,0,0,1,0,0,0,1 @ F,0,0,1,0,0,0,1 @ F,0,0,1,0,0,0,1 @ F,0,0,1,0,0,0,1 @ F,0,0,1,0,0,0,1 @ F,0,0,1,0,0,0,1 | F,0,0,1,0,0,0,1 @ F,0,0,1,0,0,0,1 @ F,0,0,1,0,0,0,1 @ F,0,0,1,0,0,0,1 @ F,0,0,1,0,0,0,1 @ F,0,0,1,0,0,0,1 @ F,0,0,1,0,0,0,1 @ F,0,0,1,0,0,0,1 @ F,0,0,1,0,0,0,1 @ F,0,0,1,0,0,0,1 @ F,0,0,1,0,0,0,1 @ F,0,0,1,0,0,0,1 @ F,0,0,1,0,0,0,1 @ F,0,0,1,0,0,0,1 @ F,0,0,1,0,0,0,1 @ F,0,0,1,0,0,0,1 @ F,0,0,1,0,0,0,1 @ F,0,0,1,0,0,0,1 @ F,0,0,1,0,0,0,1 @ F,0,0,1,0,0,0,1 @ F,0,0,1,0,0,0,1 @ F,0,0,1,0,0,0,1 @ F,0,0,1,0,0,0,1 @ F,0,0,1,0,0,0,1 @ F,0,0,1,0,0,0,1 @ F,0,0,1,0,0,0,1 @ F,0,0,1,0,0,0,1 @ F,0,0,1,0,0,0,1 @ F,0,0,1,0,0,0,1 @ F,0,0,1,0,0,0,1 @ F,0,0,1,0,0,0,1 @ F,0,0,1,0,0,0,1 @ F,0,0,1,0,0,0,1 @ F,0,0,1,0,0,0,1 @ F,0,0,1,0,0,0,1 @ F,0,0,1,0,0,0,1 @ F,0,0,1,0,0,0,1 @ F,0,0,1,0,0,0,1 @ F,0,0,1,0,0,0,1 @ F,0,0,1,0,0,0,1 @ F,0,0,1,0,0,0,1 @ F,0,0,1,0,0,0,1 @ F,0,0,1,0,0,0,1 @ F,0,0,1,0,0,0,1 @ F,0,0,1,0,0,0,1 @ F,0,0,1,0,0,0,1 @ F,0,0,1,0,0,0,1 @ F,0,0,1,0,0,0,1 @ F,0,0,1,0,0,0,1 @ F,0,0,1,0,0,0,1 @ F,0,0,1,0,0,0,1 @ F,0,0,1,0,0,0,1 @ F,0,0,1,0,0,0,1 @ F,0,0,1,0,0,0,1 @ F,0,0,1,0,0,0,1 @ F,0,0,1,0,0,0,1 @ F,0,0,1,0,0,0,1 @ F,0,0,1,0,0,0,1 @ F,0,0,1,0,0,0,1 @ F,0,0,1,0,0,0,1 @ F,0,0,1,0,0,0,1 @ F,0,0,1,0,0,0,1 @ F,0,0,1,0,0,0,1 @ F,0,0,1,0,0,0,1 @ F,0,0,1,0,0,0,1 @ F,0,0,1,0,0,0,1 @ F,0,0,1,0,0,0,1 @ F,0,0,1,0,0,0,1 @ F,0,0,1,0,0,0,1 @ F,0,0,1,0,0,0,1"
       radius="0"
       unit="px"
       method="auto"
       mode="F"
       chamfer_steps="1"
       flexible="false"
       use_knot_distance="true"
       apply_no_radius="true"
       apply_with_radius="true"
       only_selected="false"
       hide_knots="false" /><inkscape:path-effect
       effect="mirror_symmetry"
       start_point="256,0"
       end_point="256,512"
       center_point="256,256"
       id="path-effect5"
       is_visible="true"
       lpeversion="1.2"
       lpesatellites=""
       mode="vertical"
       discard_orig_path="false"
       fuse_paths="false"
       oposite_fuse="false"
       split_items="false"
       split_open="false"
       link_styles="false" /><inkscape:path-effect
       effect="mirror_symmetry"
       start_point="256,0"
       end_point="256,512"
       center_point="256,256"
       id="path-effect4"
       is_visible="true"
       lpeversion="1.2"
       lpesatellites=""
       mode="vertical"
       discard_orig_path="false"
       fuse_paths="false"
       oposite_fuse="false"
       split_items="false"
       split_open="false"
       link_styles="false" /><inkscape:path-effect
       effect="fillet_chamfer"
       id="path-effect3"
       is_visible="true"
       lpeversion="1"
       nodesatellites_param="F,0,0,1,0,5,0,1 @ F,0,0,1,0,5,0,1 @ F,0,0,1,0,5,0,1 @ F,0,0,1,0,5,0,1 @ F,0,0,1,0,5,0,1 @ F,0,0,1,0,5,0,1 @ F,0,0,1,0,5,0,1 @ F,0,0,1,0,5,0,1 @ F,0,0,1,0,5,0,1 @ F,0,0,1,0,5,0,1 @ F,0,0,1,0,5,0,1 @ F,0,0,1,0,5,0,1 @ F,0,0,1,0,5,0,1 @ F,0,0,1,0,5,0,1 @ F,0,0,1,0,5,0,1 @ F,0,0,1,0,5,0,1 @ F,0,0,1,0,5,0,1 @ F,0,0,1,0,5,0,1 @ F,0,0,1,0,5,0,1 @ F,0,0,1,0,5,0,1 @ F,0,0,1,0,0.25892719,0,1 @ F,0,0,1,0,0.48242,0,1 @ F,0,0,1,0,0.28515,0,1 @ F,0,0,1,0,3.4966075,0,1 @ F,0,0,1,0,3.4966075,0,1 @ F,0,0,1,0,6,0,1 @ F,0,0,1,0,6,0,1 @ F,0,0,1,0,6,0,1 @ F,0,0,1,0,6,0,1 @ F,0,0,1,0,6,0,1 @ F,0,0,1,0,0.69859847,0,1 @ F,0,0,1,0,0.46132105,0,1 @ F,0,0,1,0,6,0,1 @ F,0,0,1,0,6,0,1 @ F,0,0,1,0,6,0,1 @ F,0,0,1,0,6,0,1 @ F,0,0,1,0,6,0,1 @ F,0,0,1,0,6,0,1 @ F,0,0,1,0,6,0,1 @ F,0,0,1,0,6,0,1 @ F,0,0,1,0,6,0,1 @ F,0,0,1,0,6,0,1 @ F,0,0,1,0,6,0,1 @ F,0,0,1,0,6,0,1"
       radius="6"
       unit="px"
       method="auto"
       mode="F"
       chamfer_steps="1"
       flexible="false"
       use_knot_distance="true"
       apply_no_radius="true"
       apply_with_radius="true"
       only_selected="false"
       hide_knots="false" /><inkscape:path-effect
       effect="mirror_symmetry"
       start_point="256,0"
       end_point="256,512"
       center_point="256,256"
       id="path-effect2"
       is_visible="true"
       lpeversion="1.2"
       lpesatellites=""
       mode="vertical"
       discard_orig_path="false"
       fuse_paths="false"
       oposite_fuse="false"
       split_items="false"
       split_open="false"
       link_styles="false" /><inkscape:path-effect
       effect="slice"
       start_point="256.00001,425.31836"
       end_point="256.00001,85.820312"
       center_point="256.00001,255.56934"
       id="path-effect48"
       is_visible="true"
       lpeversion="1.2"
       lpesatellites=""
       allow_transforms="true" /><inkscape:path-effect
       effect="slice"
       start_point="256,425.31836"
       end_point="256,85.820312"
       center_point="256,255.56934"
       id="path-effect47"
       is_visible="true"
       lpeversion="1.2"
       lpesatellites=""
       allow_transforms="true" /><inkscape:path-effect
       effect="fillet_chamfer"
       id="path-effect46"
       is_visible="true"
       lpeversion="1"
       nodesatellites_param="F,0,0,1,0,6,0,1 @ F,0,0,1,0,6,0,1 @ F,0,0,1,0,6,0,1 @ F,0,0,1,0,6,0,1 @ F,0,0,1,0,6,0,1 @ F,0,0,1,0,6,0,1 @ F,0,0,1,0,6,0,1 @ F,0,0,1,0,6,0,1 @ F,0,0,1,0,6,0,1 @ F,0,0,1,0,6,0,1 @ F,0,0,1,0,6,0,1 @ F,0,0,1,0,6,0,1 @ F,0,0,1,0,6,0,1 @ F,0,0,1,0,6,0,1 @ F,0,0,1,0,6,0,1 @ F,0,0,1,0,6,0,1 @ F,0,0,1,0,6,0,1 @ F,0,0,1,0,6,0,1 @ F,0,0,1,0,6,0,1 @ F,0,0,1,0,6,0,1 @ F,0,0,1,0,6,0,1 @ F,0,0,1,0,6,0,1 @ F,0,0,1,0,6,0,1 @ F,0,0,1,0,6,0,1 @ F,0,0,1,0,6,0,1 @ F,0,0,1,0,6,0,1 @ F,0,0,1,0,6,0,1 @ F,0,0,1,0,6,0,1 @ F,0,0,1,0,6,0,1 @ F,0,0,1,0,6,0,1 @ F,0,0,1,0,6,0,1 @ F,0,0,1,0,6,0,1 @ F,0,0,1,0,6,0,1 @ F,0,0,1,0,6,0,1 @ F,0,0,1,0,6,0,1 @ F,0,0,1,0,6,0,1 @ F,0,0,1,0,6,0,1 @ F,0,0,1,0,6,0,1 | F,0,0,1,0,6,0,1 @ F,0,0,1,0,6,0,1 @ F,0,0,1,0,6,0,1 @ F,0,0,1,0,6,0,1 @ F,0,0,1,0,6,0,1 @ F,0,0,1,0,6,0,1 @ F,0,0,1,0,6,0,1 @ F,0,0,1,0,6,0,1 @ F,0,0,1,0,6,0,1 @ F,0,0,1,0,6,0,1 @ F,0,0,1,0,6,0,1 @ F,0,0,1,0,6,0,1 @ F,0,0,1,0,6,0,1 @ F,0,0,1,0,6,0,1 @ F,0,0,1,0,6,0,1 @ F,0,0,1,0,6,0,1 @ F,0,0,1,0,6,0,1 @ F,0,0,1,0,6,0,1 @ F,0,0,1,0,6,0,1 @ F,0,0,1,0,6,0,1 @ F,0,0,1,0,6,0,1 @ F,0,0,1,0,6,0,1 @ F,0,0,1,0,6,0,1 @ F,0,0,1,0,6,0,1 @ F,0,0,1,0,6,0,1 @ F,0,0,1,0,6,0,1 @ F,0,0,1,0,6,0,1 @ F,0,0,1,0,6,0,1 @ F,0,0,1,0,6,0,1 @ F,0,0,1,0,6,0,1 @ F,0,0,1,0,6,0,1 @ F,0,0,1,0,6,0,1 @ F,0,0,1,0,6,0,1 @ F,0,0,1,0,6,0,1 @ F,0,0,1,0,6,0,1 @ F,0,0,1,0,6,0,1 @ F,0,0,1,0,6,0,1 @ F,0,0,1,0,6,0,1 | F,0,0,1,0,6,0,1 @ F,0,0,1,0,6,0,1 @ F,0,0,1,0,6,0,1 @ F,0,0,1,0,6,0,1 @ F,0,0,1,0,6,0,1 @ F,0,0,1,0,6,0,1 @ F,0,0,1,0,6,0,1 @ F,0,0,1,0,6,0,1 @ F,0,0,1,0,6,0,1 @ F,0,0,1,0,6,0,1 @ F,0,0,1,0,6,0,1 @ F,0,0,1,0,6,0,1 @ F,0,0,1,0,6,0,1 @ F,0,0,1,0,6,0,1 @ F,0,0,1,0,6,0,1 @ F,0,0,1,0,6,0,1 @ F,0,0,1,0,6,0,1 @ F,0,0,1,0,6,0,1 @ F,0,0,1,0,6,0,1 @ F,0,0,1,0,6,0,1 @ F,0,0,1,0,6,0,1 @ F,0,0,1,0,6,0,1 @ F,0,0,1,0,6,0,1 @ F,0,0,1,0,6,0,1 @ F,0,0,1,0,6,0,1 @ F,0,0,1,0,6,0,1 @ F,0,0,1,0,6,0,1 | F,0,0,1,0,6,0,1 @ F,0,0,1,0,6,0,1 @ F,0,0,1,0,6,0,1 @ F,0,0,1,0,6,0,1 @ F,0,0,1,0,6,0,1 @ F,0,0,1,0,6,0,1 @ F,0,0,1,0,6,0,1 @ F,0,0,1,0,6,0,1 @ F,0,0,1,0,6,0,1 @ F,0,0,1,0,6,0,1 @ F,0,0,1,0,6,0,1 @ F,0,0,1,0,6,0,1 @ F,0,0,1,0,6,0,1 @ F,0,0,1,0,6,0,1 @ F,0,0,1,0,6,0,1 @ F,0,0,1,0,6,0,1 @ F,0,0,1,0,6,0,1 @ F,0,0,1,0,6,0,1 @ F,0,0,1,0,6,0,1 @ F,0,0,1,0,6,0,1 @ F,0,0,1,0,6,0,1 @ F,0,0,1,0,6,0,1 @ F,0,0,1,0,6,0,1 @ F,0,0,1,0,6,0,1 @ F,0,0,1,0,6,0,1 @ F,0,0,1,0,6,0,1 @ F,0,0,1,0,6,0,1 | F,0,0,1,0,6,0,1 @ F,0,0,1,0,6,0,1 @ F,0,0,1,0,6,0,1 | F,0,0,1,0,6,0,1 @ F,0,0,1,0,6,0,1 @ F,0,0,1,0,6,0,1 | F,0,0,1,0,6,0,1 @ F,0,0,1,0,6,0,1 | F,0,0,1,0,6,0,1 @ F,0,0,1,0,6,0,1 | F,0,0,1,0,6,0,1 @ F,0,0,1,0,6,0,1 | F,0,0,1,0,6,0,1 @ F,0,0,1,0,6,0,1"
       radius="6"
       unit="px"
       method="auto"
       mode="F"
       chamfer_steps="1"
       flexible="false"
       use_knot_distance="true"
       apply_no_radius="true"
       apply_with_radius="true"
       only_selected="false"
       hide_knots="false" /><inkscape:path-effect
       effect="mirror_symmetry"
       start_point="256,0"
       end_point="256,512"
       center_point="256,256"
       id="path-effect45"
       is_visible="true"
       lpeversion="1.2"
       lpesatellites=""
       mode="vertical"
       discard_orig_path="false"
       fuse_paths="false"
       oposite_fuse="false"
       split_items="false"
       split_open="false"
       link_styles="false" /><inkscape:path-effect
       effect="fillet_chamfer"
       id="path-effect44"
       is_visible="true"
       lpeversion="1"
       nodesatellites_param="F,0,0,1,0,3,0,1 @ F,0,0,1,0,3,0,1 @ F,0,0,1,0,3,0,1 @ F,0,0,1,0,3,0,1 @ F,0,0,1,0,3,0,1 @ F,0,0,1,0,3,0,1 @ F,0,0,1,0,3,0,1 @ F,0,0,1,0,3,0,1 @ F,0,0,1,0,3,0,1 @ F,0,0,1,0,3,0,1 @ F,0,0,1,0,3,0,1 @ F,0,0,1,0,3,0,1 @ F,0,0,1,0,3,0,1 @ F,0,0,1,0,3,0,1 @ F,0,0,1,0,3,0,1 @ F,0,0,1,0,3,0,1 @ F,0,0,1,0,3,0,1 @ F,0,0,1,0,3,0,1 @ F,0,0,1,0,3,0,1 @ F,0,0,1,0,3,0,1 @ F,0,0,1,0,3,0,1 @ F,0,0,1,0,3,0,1 @ F,0,0,1,0,3,0,1 @ F,0,0,1,0,3,0,1 @ F,0,0,1,0,3,0,1 @ F,0,0,1,0,3,0,1 @ F,0,0,1,0,3,0,1 @ F,0,0,1,0,3,0,1 @ F,0,0,1,0,3,0,1 @ F,0,0,1,0,3,0,1 @ F,0,0,1,0,3,0,1 @ F,0,0,1,0,3,0,1 @ F,0,0,1,0,0,0,1 @ F,0,0,1,0,3,0,1 @ F,0,0,1,0,3,0,1 @ F,0,0,1,0,3,0,1 @ F,0,0,1,0,3,0,1 @ F,0,0,1,0,3,0,1 @ F,0,0,1,0,3,0,1 @ F,0,0,1,0,3,0,1 @ F,0,0,1,0,3,0,1 @ F,0,0,1,0,3,0,1 @ F,0,0,1,0,3,0,1 @ F,0,0,1,0,3,0,1 @ F,0,0,1,0,3,0,1 @ F,0,0,1,0,3,0,1 @ F,0,0,1,0,3,0,1 @ F,0,0,1,0,3,0,1 @ F,0,0,1,0,3,0,1 @ F,0,0,1,0,3,0,1 @ F,0,0,1,0,3,0,1 @ F,0,0,1,0,3,0,1 @ F,0,0,1,0,3,0,1 @ F,0,0,1,0,3,0,1 @ F,0,0,1,0,3,0,1"
       radius="3"
       unit="px"
       method="auto"
       mode="F"
       chamfer_steps="1"
       flexible="false"
       use_knot_distance="true"
       apply_no_radius="true"
       apply_with_radius="true"
       only_selected="false"
       hide_knots="false" /><inkscape:path-effect
       effect="mirror_symmetry"
       start_point="256,0"
       end_point="256,512"
       center_point="256,256"
       id="path-effect43"
       is_visible="true"
       lpeversion="1.2"
       lpesatellites=""
       mode="vertical"
       discard_orig_path="false"
       fuse_paths="false"
       oposite_fuse="true"
       split_items="false"
       split_open="false"
       link_styles="false" /><inkscape:path-effect
       effect="slice"
       start_point="256.58068,86"
       end_point="256.58068,279.92773"
       center_point="256.58068,182.96386"
       id="path-effect42"
       is_visible="true"
       lpeversion="1.2"
       lpesatellites="#path42"
       allow_transforms="true" /><inkscape:path-effect
       effect="mirror_symmetry"
       start_point="256,0"
       end_point="256,512"
       center_point="256,256"
       id="path-effect41"
       is_visible="true"
       lpeversion="1.2"
       lpesatellites=""
       mode="vertical"
       discard_orig_path="false"
       fuse_paths="false"
       oposite_fuse="false"
       split_items="false"
       split_open="false"
       link_styles="false" /><inkscape:path-effect
       effect="slice"
       start_point="256.58233,85.820481"
       end_point="256.58233,425.31895"
       center_point="256.58233,255.56972"
       id="path-effect40"
       is_visible="true"
       lpeversion="1.2"
       lpesatellites="#path40"
       allow_transforms="true" /><inkscape:path-effect
       effect="fillet_chamfer"
       id="path-effect39"
       is_visible="true"
       lpeversion="1"
       nodesatellites_param="F,0,0,1,0,0,0,1 @ F,0,0,1,0,0,0,1 @ F,0,0,1,0,0,0,1 @ F,0,0,1,0,0,0,1 @ F,0,0,1,0,0,0,1 @ F,0,0,1,0,0,0,1 @ F,0,0,1,0,0,0,1 @ F,0,0,1,0,0,0,1 @ F,0,0,1,0,0,0,1 @ F,0,0,1,0,0,0,1 @ F,0,0,1,0,0,0,1 @ F,0,0,1,0,0,0,1 @ F,0,0,1,0,0,0,1 @ F,0,0,1,0,0,0,1 @ F,0,0,1,0,0,0,1 @ F,0,0,1,0,0,0,1 @ F,0,0,1,0,0,0,1 @ F,0,0,1,0,0,0,1 @ F,0,0,1,0,0,0,1 @ F,0,0,1,0,0,0,1 @ F,0,0,1,0,0,0,1 @ F,0,0,1,0,0,0,1 @ F,0,0,1,0,0,0,1 @ F,0,0,1,0,0,0,1 @ F,0,0,1,0,0,0,1 @ F,0,0,1,0,0,0,1 @ F,0,0,1,0,0,0,1 @ F,0,0,1,0,0,0,1 @ F,0,0,1,0,0,0,1 @ F,0,0,1,0,0,0,1 @ F,0,0,1,0,0,0,1 @ F,0,0,1,0,0,0,1 @ F,0,0,1,0,0,0,1 @ F,0,0,1,0,0,0,1 @ F,0,0,1,0,0,0,1 @ F,0,0,1,0,0,0,1 @ F,0,0,1,0,0,0,1 @ F,0,0,1,0,0,0,1 @ F,0,0,1,0,0,0,1 @ F,0,0,1,0,0,0,1 @ F,0,0,1,0,0,0,1 @ F,0,0,1,0,0,0,1 @ F,0,0,1,0,0,0,1 @ F,0,0,1,0,0,0,1 @ F,0,0,1,0,0,0,1 @ F,0,0,1,0,0,0,1 @ F,0,0,1,0,0,0,1 @ F,0,0,1,0,0,0,1 @ F,0,0,1,0,0,0,1 @ F,0,0,1,0,0,0,1 @ F,0,0,1,0,0,0,1 @ F,0,0,1,0,0,0,1 @ F,0,0,1,0,0,0,1 @ F,0,0,1,0,0,0,1 @ F,0,0,1,0,0,0,1 @ F,0,0,1,0,0,0,1 @ F,0,0,1,0,0,0,1 @ F,0,0,1,0,0,0,1 @ F,0,0,1,0,0,0,1 @ F,0,0,1,0,0,0,1 @ F,0,0,1,0,0,0,1 @ F,0,0,1,0,0,0,1 @ F,0,0,1,0,0,0,1 @ F,0,0,1,0,0,0,1 @ F,0,0,1,0,0,0,1 @ F,0,0,1,0,0,0,1 @ F,0,0,1,0,0,0,1 @ F,0,0,1,0,0,0,1 @ F,0,0,1,0,0,0,1 @ F,0,0,1,0,0,0,1 @ F,0,0,1,0,0,0,1 @ F,0,0,1,0,0,0,1 @ F,0,0,1,0,0,0,1 @ F,0,0,1,0,0,0,1 @ F,0,0,1,0,0,0,1 @ F,0,0,1,0,0,0,1 @ F,0,0,1,0,0,0,1 @ F,0,0,1,0,0,0,1 @ F,0,0,1,0,0,0,1 @ F,0,0,1,0,0,0,1 @ F,0,0,1,0,0,0,1 @ F,0,0,1,0,0,0,1 @ F,0,0,1,0,0,0,1 @ F,0,0,1,0,0,0,1 @ F,0,0,1,0,0,0,1 @ F,0,0,1,0,0,0,1 @ F,0,0,1,0,0,0,1 @ F,0,0,1,0,0,0,1 @ F,0,0,1,0,0,0,1 @ F,0,0,1,0,0,0,1 @ F,0,0,1,0,0,0,1 @ F,0,0,1,0,0,0,1 @ F,0,0,1,0,0,0,1 @ F,0,0,1,0,0,0,1 @ F,0,0,1,0,0,0,1 @ F,0,0,1,0,0,0,1 @ F,0,0,1,0,0,0,1 @ F,0,0,1,0,0,0,1 @ F,0,0,1,0,0,0,1 @ F,0,0,1,0,0,0,1 @ F,0,0,1,0,0,0,1 @ F,0,0,1,0,0,0,1 @ F,0,0,1,0,0,0,1 @ F,0,0,1,0,0,0,1 @ F,0,0,1,0,0,0,1 @ F,0,0,1,0,0,0,1 @ F,0,0,1,0,0,0,1 @ F,0,0,1,0,0,0,1 @ F,0,0,1,0,0,0,1 @ F,0,0,1,0,0,0,1 @ F,0,0,1,0,0,0,1 @ F,0,0,1,0,0,0,1 @ F,0,0,1,0,0,0,1 @ F,0,0,1,0,0,0,1 @ F,0,0,1,0,0,0,1 @ F,0,0,1,0,0,0,1 @ F,0,0,1,0,0,0,1 @ F,0,0,1,0,0,0,1 @ F,0,0,1,0,0,0,1 @ F,0,0,1,0,0,0,1 @ F,0,0,1,0,0,0,1 @ F,0,0,1,0,0,0,1 @ F,0,0,1,0,0,0,1 @ F,0,0,1,0,0,0,1 @ F,0,0,1,0,0,0,1 @ F,0,0,1,0,0,0,1 @ F,0,0,1,0,0,0,1 @ F,0,0,1,0,2.7079396,0,1 @ F,0,0,1,0,0,0,1 @ F,0,0,1,0,0,0,1 @ F,0,0,1,0,0,0,1 @ F,0,0,1,0,0,0,1 @ F,0,0,1,0,0,0,1 @ F,0,0,1,0,0,0,1 @ F,0,0,1,0,0,0,1 @ F,0,0,1,0,0,0,1 @ F,0,0,1,0,0,0,1 @ F,0,0,1,0,0,0,1 @ F,0,0,1,0,0,0,1 @ F,0,0,1,0,0,0,1 @ F,0,0,1,0,0,0,1 @ F,0,0,1,0,0,0,1 @ F,0,0,1,0,0,0,1 @ F,0,0,1,0,0,0,1 @ F,0,0,1,0,0,0,1 @ F,0,0,1,0,0,0,1 @ F,0,0,1,0,0,0,1 @ F,0,0,1,0,0,0,1 @ F,0,0,1,0,0,0,1 @ F,0,0,1,0,0,0,1 @ F,0,0,1,0,0,0,1 @ F,0,0,1,0,0,0,1 @ F,0,0,1,0,0,0,1 @ F,0,0,1,0,0,0,1 @ F,0,0,1,0,0,0,1 @ F,0,0,1,0,0,0,1 @ F,0,0,1,0,0,0,1 @ F,0,0,1,0,0,0,1 @ F,0,0,1,0,0,0,1 @ F,0,0,1,0,0,0,1 @ F,0,0,1,0,0,0,1 @ F,0,0,1,0,0,0,1 @ F,0,0,1,0,0,0,1"
       radius="0"
       unit="px"
       method="auto"
       mode="F"
       chamfer_steps="1"
       flexible="false"
       use_knot_distance="true"
       apply_no_radius="true"
       apply_with_radius="true"
       only_selected="false"
       hide_knots="false" /><filter
       inkscape:collect="always"
       style="color-interpolation-filters:sRGB"
       id="filter5"
       x="-1.1809728"
       y="-0.013664731"
       width="3.3619456"
       height="1.0273295"><feGaussianBlur
         inkscape:collect="always"
         stdDeviation="0.98606306"
         id="feGaussianBlur5" /></filter><filter
       inkscape:collect="always"
       style="color-interpolation-filters:sRGB"
       id="filter9"
       x="-0.054411484"
       y="-0.023275195"
       width="1.108823"
       height="1.0465504"><feGaussianBlur
         inkscape:collect="always"
         stdDeviation="0.68976961"
         id="feGaussianBlur9" /></filter><filter
       inkscape:collect="always"
       style="color-interpolation-filters:sRGB"
       id="filter13"
       x="-0.0043198134"
       y="-0.0062906276"
       width="1.0086396"
       height="1.0125508"><feGaussianBlur
         inkscape:collect="always"
         stdDeviation="0.32954027"
         id="feGaussianBlur13" /></filter><filter
       inkscape:collect="always"
       style="color-interpolation-filters:sRGB"
       id="filter7"
       x="-0.0081590009"
       y="-0.01328355"
       width="1.016318"
       height="1.0265636"><feGaussianBlur
         inkscape:collect="always"
         stdDeviation="0.58545405"
         id="feGaussianBlur7" /></filter></defs><g
     inkscape:label="Katman 1"
     inkscape:groupmode="layer"
     id="layer1"><path
       id="rect19"
       style="opacity:1;fill:#0b1d2a;fill-opacity:1;stroke-width:1.02539;stroke-linecap:round;stroke-linejoin:round"
       d="m 140.96537,50.242641 h 240 c 49.86,0 90,40.14 90,89.999999 v 240 c 0,49.86 -40.14,90 -90,90 h -240 c -49.859997,0 -89.999997,-40.14 -89.999997,-90 v -240 c 0,-49.859999 40.14,-89.999999 89.999997,-89.999999 z"
       sodipodi:nodetypes="sssssssss" /><path
       id="path14"
       style="display:inline;fill:none;fill-opacity:1;stroke:#7dc8fe;stroke-width:2;stroke-linecap:round;stroke-linejoin:round;stroke-dasharray:none;stroke-opacity:1;filter:url(#filter7)"
       d="m 256.50199,450.5511 c 5.98741,-3.05318 12.00105,-6.05584 17.82422,-9.41601 l 20.35156,-11.81836 8.65039,-5.01563 86.34766,-50 0.92578,-0.65625 c 2.57307,-1.82079 2.35134,-4.39275 -0.46289,-5.8125 -11.67646,-5.89065 -20.7885,-11.58688 -28.84765,-16.48047 -2.3598,-1.43288 -6.18238,-3.76063 -8.48047,-5.29101 -2.18838,-1.45731 -4.56451,-2.96895 -6.92774,-3.89063 -2.54886,-0.99407 -7.13192,-0.62903 -9.75976,0.20313 -10.35086,3.2778 -22.47323,12.91981 -31.86914,19.07422 -2.30947,1.51272 -6.11094,3.87385 -8.42188,5.38476 -1.95185,1.27614 -4.18556,2.59972 -6.1875,3.21289 -2.47255,0.75731 -5.84703,-2.78261 -6.09765,-5.49609 -0.22406,-2.42585 -0.0481,-5.2403 0.14648,-7.76563 0.21204,-2.75241 0.30859,-7.22686 0.30859,-9.98828 v -33 c 0,-2.76141 0.11447,-3.79161 -0.11718,-8.17578 -0.23165,-4.38417 -1.32584,-8.97397 1.78112,-13.37891 3.10696,-4.40494 16.60121,-12.39045 24.54388,-16.04763 22.08505,-10.16903 40.48636,-8.40435 42.38482,2.35042 2.04543,11.58735 0.0303,20.58807 0.0363,20.82417 5.9e-4,0.0233 0.0772,2.72806 0.3125,6.0332 0.12293,1.72605 0.28913,3.60721 0.50976,5.40234 0.40372,3.28461 2.33786,8.41323 4.89844,10.44727 1.35237,1.07427 2.8877,2.06847 4.33008,2.91602 2.85559,1.67795 7.60665,4.18026 10.42578,5.92187 l 25.17774,15.55274 c 2.81912,1.7416 5.10376,0.468 5.10351,-2.84571 -7.8e-4,-10.22202 -0.003,-31.06589 -0.002,-43.02343 l -0.95758,-6.66767 -45.88973,5.03928 -3.5011,0.72171 M 255.49801,450.5511 c -5.98741,-3.05318 -12.00105,-6.05584 -17.82422,-9.41601 l -20.35156,-11.81836 -8.65039,-5.01563 -86.34766,-50 -0.92578,-0.65625 c -2.57307,-1.82079 -2.35134,-4.39275 0.46289,-5.8125 11.67646,-5.89065 20.7885,-11.58688 28.84765,-16.48047 2.3598,-1.43288 6.18238,-3.76063 8.48047,-5.29101 2.18838,-1.45731 4.56451,-2.96895 6.92774,-3.89063 2.54886,-0.99407 7.13192,-0.62903 9.75976,0.20313 10.35086,3.2778 22.47323,12.91981 31.86914,19.07422 2.30947,1.51272 6.11094,3.87385 8.42188,5.38476 1.95185,1.27614 4.18556,2.59972 6.1875,3.21289 2.47255,0.75731 5.84703,-2.78261 6.09765,-5.49609 0.22406,-2.42585 0.0481,-5.2403 -0.14648,-7.76563 -0.21204,-2.75241 -0.30859,-7.22686 -0.30859,-9.98828 v -33 c 0,-2.76141 -0.11447,-3.79161 0.11718,-8.17578 0.23164,-4.38417 1.32584,-8.97397 -1.78112,-13.37891 -3.10696,-4.40494 -16.60121,-12.39045 -24.54388,-16.04763 -22.08505,-10.16903 -40.48636,-8.40435 -42.38482,2.35042 -2.04543,11.58735 -0.0303,20.58807 -0.0363,20.82417 -5.9e-4,0.0233 -0.0772,2.72806 -0.3125,6.0332 -0.12293,1.72605 -0.28913,3.60721 -0.50976,5.40234 -0.40372,3.28461 -2.33786,8.41323 -4.89844,10.44727 -1.35237,1.07427 -2.8877,2.06847 -4.33008,2.91602 -2.85559,1.67795 -7.60665,4.18026 -10.42578,5.92187 l -25.17774,15.55274 c -2.81912,1.7416 -5.10376,0.468 -5.10351,-2.84571 7.8e-4,-10.22202 0.003,-31.06589 0.002,-43.02343 l 0.95758,-6.66767 45.88973,5.03928 3.5011,0.72171"
       sodipodi:nodetypes="ccccccsssssssssssszzsssssssccsccccccccccsssssssssssssssssssssccscccc" /><path
       style="display:inline;fill:#cccccc;fill-opacity:1;stroke:none"
       d="m 230.06918,296.67753 c 0.33486,0.144 0.70526,0.22461 1.09961,0.22461 -0.39597,0 -0.76363,-0.0856 -1.09961,-0.22461 z"
       id="path18"
       sodipodi:nodetypes="ccc" /><path
       style="display:inline;fill:#cccccc;fill-opacity:1;stroke:none"
       d="m 229.26449,296.13456 c 0.18975,0.1811 0.40463,0.33035 0.63867,0.45118 -0.23695,-0.1182 -0.44746,-0.27378 -0.63867,-0.45118 z"
       id="path17"
       sodipodi:nodetypes="ccc" /><path
       style="display:inline;fill:#cccccc;fill-opacity:1;stroke:none"
       d="m 220.1805,78.753704 c 1.282,0.15098 2.56301,0.90698 3.18555,1.982422 h -0.002 c 5.03387,8.69603 9.69382,17.921306 13.86133,27.037114 0.68888,1.50682 2.57561,2.84661 4.22656,2.98632 1.5563,0.24672 2.66344,1.64329 2.54883,3.21485 v 38 c 0,1.65685 0.0354,4.34341 0.15039,5.99609 0.20691,2.97472 0.49268,6.01227 0.01,8.91797 -0.27087,1.62965 -1.0938,3.68237 -1.76367,4.45117 -3.00247,3.01486 -4.82263,4.52457 -6.16016,5.50195 -1.2125,0.88602 -3.34881,2.30016 -4.76367,3.16211 -0.0219,0.0133 -0.0445,0.0258 -0.0664,0.0391 -1.41566,0.86073 -3.75609,2.18293 -5.2168,2.96484 -0.0852,0.0456 -0.17045,0.0893 -0.25586,0.13477 -1.46227,0.77898 -3.8564,1.99845 -5.3418,2.73242 -1.96848,0.97268 -3.9422,1.91923 -5.8789,2.8457 -1.49452,0.71495 -3.91611,1.87324 -5.4043,2.60156 -1.42542,0.69761 -3.77514,1.87916 -5.23633,2.66016 -1.15215,0.61581 -3.26266,1.76489 -4.7539,2.48633 -0.31615,0.15295 -1.78971,0.85004 -3.24024,1.65039 -0.83854,0.46267 -2.39435,1.40091 -3.38672,2.20312 l -1.47851,1.44727 -0.85352,1.55664 -0.125,0.8125 0.11133,0.83594 0.54688,1.30859 0.875,1.29297 c 2.36251,2.35115 3.61952,3.37391 4.99609,4.29492 0.53919,0.36075 2.11925,1.36043 3.5625,2.17383 0.7339,0.41361 2.51785,1.37485 3.99805,2.11914 0.907,0.45607 1.81245,0.89756 2.70117,1.32422 1.49352,0.717 3.92926,1.85145 5.42578,2.5625 0.30129,0.14316 0.59341,0.28303 0.87695,0.41992 1.49161,0.72014 3.84429,2.01799 5.28516,2.83594 3.12307,1.7729 6.22675,3.58154 9.32226,5.40234 1.42809,0.84001 3.74112,2.20665 5.16797,3.04883 3.09225,1.82516 6.18562,3.64811 9.29492,5.44336 1.43482,0.82844 3.75697,2.179 5.14454,3.08398 0.21323,0.13907 0.42918,0.27883 0.64648,0.41993 1.3876,0.90107 3.69748,2.29253 5.24023,2.89257 0.23733,0.0923 1.11347,0.41877 1.99024,0.58008 v 60.72461 h 0.0215 l 0.0566,140.21289 v 5.43555 l -9.04882,-4.62891 c -2.96692,-1.51809 -5.89325,-3.11369 -8.7754,-4.78711 l -20.35156,-11.81836 -8.65039,-5.01562 -86.34765,-50 -0.92579,-0.65625 c -2.57306,-1.82079 -2.35133,-4.39275 0.46289,-5.8125 11.67646,-5.89065 20.78851,-11.58688 28.84766,-16.48047 2.3598,-1.43288 6.18238,-3.76064 8.48047,-5.29101 2.18838,-1.45731 4.56451,-2.96895 6.92773,-3.89063 2.54886,-0.99407 7.13193,-0.62903 9.75977,0.20313 10.35086,3.27779 22.47323,12.9198 31.86914,19.07421 2.30947,1.51272 6.11094,3.87386 8.42188,5.38477 1.95184,1.27614 4.18556,2.59972 6.1875,3.21289 2.47254,0.75731 5.84703,-2.78262 6.09765,-5.49609 0.22406,-2.42585 -0.13512,-6.37796 -0.12304,-7.76563 0.0121,-1.38766 0,-42.98828 0,-42.98828 0,-2.76141 -0.0988,-10.13623 0.002,-11.88867 0.0292,-0.85754 0.0367,-2.57147 -0.0703,-3.82031 l -0.3125,-2.15039 -0.59766,-1.95508 -0.95508,-1.67774 c -2.60189,-2.86352 -4.13339,-4.23153 -5.45898,-5.22461 -7.71095,-5.77668 -21.04271,-11.86733 -26.78125,-14.36914 -1.5179,-0.66175 -4.02123,-1.64184 -5.61328,-2.09961 -14.56765,-4.18863 -27.31739,0.0924 -29.3711,9.17969 -0.36429,1.61195 -0.23401,4.32071 -0.17578,5.97656 0.0832,2.36542 0.19397,5.80746 0.28125,8.91211 l 0.006,-0.0176 c 0,0 -1e-5,0.14554 0,0.1504 0.01,0.35273 0.0222,0.67325 0.0312,1.01562 0.002,0.0799 -0.035,0.14294 -0.0391,0.2207 -0.003,1.80604 -0.0227,6.60314 -0.21875,9.35352 -0.12293,1.72605 -0.28914,3.60721 -0.50977,5.40234 -0.40372,3.28461 -2.33786,8.41323 -4.89844,10.44727 -1.35236,1.07427 -2.8877,2.06846 -4.33007,2.91601 -2.85559,1.67795 -7.60666,4.18027 -10.42578,5.92188 l -25.17774,15.55273 c -2.81912,1.7416 -5.10376,0.46801 -5.10352,-2.8457 7.8e-4,-10.22201 0.003,-31.06591 0.002,-43.02344 9.3e-4,-0.60409 9e-5,-4.03225 -0.002,-8.98828 -1e-5,-0.004 -0.002,-0.008 -0.002,-0.0117 l -0.0176,-54.98242 c -5.9e-4,-1.65685 9.2e-4,-4.34318 0.0117,-6 0.0131,-1.9255 0.0323,-4.34115 0.043,-6.94727 0.007,-1.65678 0.01,-4.34316 0.004,-6 -0.003,-0.70249 -0.006,-1.40263 -0.0117,-2.0957 -0.0125,-1.65681 -0.0442,-3.21764 -0.0488,-3.48633 l -0.10352,-3.25781 c -0.0532,-1.656 -0.89162,-4.08126 -1.86523,-5.42187 -3.56137,-4.90386 -11.70478,-16.22403 -16.94531,-24.3418 -0.89839,-1.39163 -0.9278,-3.69527 -0.0645,-5.10938 7.68401,-12.58562 16.79717,-24.00546 26.52149,-34.66211 1.1168,-1.22387 3.23156,-1.60506 4.70312,-0.84374 8.49638,4.39557 16.77549,9.24562 24.68946,14.37109 1.39067,0.90066 3.46014,0.69132 4.68359,-0.42578 3.43298,-3.13455 7.10715,-5.92484 10.78711,-8.72461 1.3185,-1.00313 3.42943,-2.66618 4.77344,-3.63477 3.71311,-2.67593 7.6729,-4.93371 11.55859,-7.3164 1.41216,-0.86594 2.36358,-2.9221 2.16016,-4.56641 -1.26654,-10.23769 -1.96943,-20.3845 -2.31055,-30.859375 -0.0539,-1.655967 1.11086,-3.605324 2.60547,-4.320313 12.53291,-5.995465 25.75102,-10.198145 39.13867,-13.330078 0.40332,-0.09435 0.83048,-0.112826 1.25781,-0.0625 z"
       id="path16"
       sodipodi:nodetypes="cccsccscccsscscsssssscccccccssssssssssssscccccccccccssssssssssccccccsscssccccccsssccscsccccccccsscscssssssssscc" /><path
       style="display:inline;fill:#cccccc;fill-opacity:1;stroke:none"
       d="m 281.93082,296.67753 c -0.33486,0.144 -0.70526,0.22461 -1.09961,0.22461 0.39597,0 0.76363,-0.0856 1.09961,-0.22461 z"
       id="path15"
       sodipodi:nodetypes="ccc" /><path
       style="display:inline;fill:#cccccc;fill-opacity:1;stroke:none"
       d="m 282.73551,296.13456 c -0.18975,0.1811 -0.40463,0.33035 -0.63867,0.45118 0.23695,-0.1182 0.44746,-0.27378 0.63867,-0.45118 z"
       id="path12"
       sodipodi:nodetypes="ccc" /><path
       style="display:inline;fill:#a5a5a5;fill-opacity:1;stroke:none"
       d="m 291.8195,78.753704 c -1.282,0.15098 -2.56301,0.90698 -3.18555,1.982422 h 0.002 c -5.03387,8.69603 -9.69382,17.921306 -13.86133,27.037114 -0.68888,1.50682 -2.57561,2.84661 -4.22656,2.98632 -1.5563,0.24672 -2.66344,1.64329 -2.54883,3.21485 v 38 c 0,1.65685 -0.0354,4.34341 -0.15039,5.99609 -0.20691,2.97472 -0.49268,6.01227 -0.01,8.91797 0.27087,1.62965 1.0938,3.68237 1.76367,4.45117 3.00247,3.01486 4.82263,4.52457 6.16016,5.50195 1.2125,0.88602 3.34881,2.30016 4.76367,3.16211 0.0219,0.0133 0.0445,0.0258 0.0664,0.0391 1.41566,0.86073 3.75609,2.18293 5.2168,2.96484 0.0852,0.0456 0.17045,0.0893 0.25586,0.13477 1.46227,0.77898 3.8564,1.99845 5.3418,2.73242 1.96848,0.97268 3.9422,1.91923 5.8789,2.8457 1.49452,0.71495 3.91611,1.87324 5.4043,2.60156 1.42542,0.69761 3.77514,1.87916 5.23633,2.66016 1.15215,0.61581 3.26266,1.76489 4.7539,2.48633 0.31615,0.15295 1.78971,0.85004 3.24024,1.65039 0.83854,0.46267 2.39435,1.40091 3.38672,2.20312 l 1.47851,1.44727 0.85352,1.55664 0.125,0.8125 -0.11133,0.83594 -0.54688,1.30859 -0.875,1.29297 c -2.36251,2.35115 -3.61952,3.37391 -4.99609,4.29492 -0.53919,0.36075 -2.11925,1.36043 -3.5625,2.17383 -0.7339,0.41361 -2.51785,1.37485 -3.99805,2.11914 -0.907,0.45607 -1.81245,0.89756 -2.70117,1.32422 -1.49352,0.717 -3.92926,1.85145 -5.42578,2.5625 -0.30129,0.14316 -0.59341,0.28303 -0.87695,0.41992 -1.49161,0.72014 -3.84429,2.01799 -5.28516,2.83594 -3.12307,1.7729 -6.22675,3.58154 -9.32226,5.40234 -1.42809,0.84001 -3.74112,2.20665 -5.16797,3.04883 -3.09225,1.82516 -6.18562,3.64811 -9.29492,5.44336 -1.43482,0.82844 -3.75697,2.179 -5.14454,3.08398 -0.21323,0.13907 -0.42918,0.27883 -0.64648,0.41993 -1.3876,0.90107 -3.69748,2.29253 -5.24023,2.89257 -0.23733,0.0923 -1.11347,0.41877 -1.99024,0.58008 v 60.72461 h -0.0215 l -0.0566,140.21289 v 5.43555 l 9.04882,-4.62891 c 2.96692,-1.51809 5.89325,-3.11369 8.7754,-4.78711 l 20.35156,-11.81836 8.65039,-5.01562 86.34765,-50 0.92579,-0.65625 c 2.57306,-1.82079 2.35133,-4.39275 -0.46289,-5.8125 -11.67646,-5.89065 -20.78851,-11.58688 -28.84766,-16.48047 -2.3598,-1.43288 -6.18238,-3.76064 -8.48047,-5.29101 -2.18838,-1.45731 -4.56451,-2.96895 -6.92773,-3.89063 -2.54886,-0.99407 -7.13193,-0.62903 -9.75977,0.20313 -10.35086,3.27779 -22.47323,12.9198 -31.86914,19.07421 -2.30947,1.51272 -6.11094,3.87386 -8.42188,5.38477 -1.95184,1.27614 -4.18556,2.59972 -6.1875,3.21289 -2.47254,0.75731 -5.84703,-2.78262 -6.09765,-5.49609 -0.22406,-2.42585 0.13512,-6.37796 0.12304,-7.76563 -0.0121,-1.38766 0,-42.98828 0,-42.98828 0,-2.76141 0.0988,-10.13623 -0.002,-11.88867 -0.0292,-0.85754 -0.0367,-2.57147 0.0703,-3.82031 l 0.3125,-2.15039 0.59766,-1.95508 0.95508,-1.67774 c 2.60189,-2.86352 4.13339,-4.23153 5.45898,-5.22461 7.71095,-5.77668 21.04271,-11.86733 26.78125,-14.36914 1.5179,-0.66175 4.02123,-1.64184 5.61328,-2.09961 14.56765,-4.18863 27.31739,0.0924 29.3711,9.17969 0.36429,1.61195 0.23401,4.32071 0.17578,5.97656 -0.0832,2.36542 -0.19397,5.80746 -0.28125,8.91211 l -0.006,-0.0176 c 0,0 10e-6,0.14554 0,0.1504 -0.01,0.35273 -0.0222,0.67325 -0.0312,1.01562 -0.002,0.0799 0.035,0.14294 0.0391,0.2207 0.003,1.80604 0.0227,6.60314 0.21875,9.35352 0.12293,1.72605 0.28914,3.60721 0.50977,5.40234 0.40372,3.28461 2.33786,8.41323 4.89844,10.44727 1.35236,1.07427 2.8877,2.06846 4.33007,2.91601 2.85559,1.67795 7.60666,4.18027 10.42578,5.92188 l 25.17774,15.55273 c 2.81912,1.7416 5.10376,0.46801 5.10352,-2.8457 -7.8e-4,-10.22201 -0.003,-31.06591 -0.002,-43.02344 -9.3e-4,-0.60409 -9e-5,-4.03225 0.002,-8.98828 10e-6,-0.004 0.002,-0.008 0.002,-0.0117 l 0.0176,-54.98242 c 5.9e-4,-1.65685 -9.2e-4,-4.34318 -0.0117,-6 -0.0131,-1.9255 -0.0323,-4.34115 -0.043,-6.94727 -0.007,-1.65678 -0.01,-4.34316 -0.004,-6 0.003,-0.70249 0.006,-1.40263 0.0117,-2.0957 0.0125,-1.65681 0.0442,-3.21764 0.0488,-3.48633 l 0.10352,-3.25781 c 0.0532,-1.656 0.89162,-4.08126 1.86523,-5.42187 3.56137,-4.90386 11.70478,-16.22403 16.94531,-24.3418 0.89839,-1.39163 0.9278,-3.69527 0.0645,-5.10938 -7.68401,-12.58562 -16.79717,-24.00546 -26.52149,-34.66211 -1.1168,-1.22387 -3.23156,-1.60506 -4.70312,-0.84374 -8.49638,4.39557 -16.77549,9.24562 -24.68946,14.37109 -1.39067,0.90066 -3.46014,0.69132 -4.68359,-0.42578 -3.43298,-3.13455 -7.10715,-5.92484 -10.78711,-8.72461 -1.3185,-1.00313 -3.42943,-2.66618 -4.77344,-3.63477 -3.71311,-2.67593 -7.6729,-4.93371 -11.55859,-7.3164 -1.41216,-0.86594 -2.36358,-2.9221 -2.16016,-4.56641 1.26654,-10.23769 1.96943,-20.3845 2.31055,-30.859375 0.0539,-1.655967 -1.11086,-3.605324 -2.60547,-4.320313 -12.53291,-5.995465 -25.75102,-10.198145 -39.13867,-13.330078 -0.40332,-0.09435 -0.83048,-0.112826 -1.25781,-0.0625 z"
       id="path44"
       sodipodi:nodetypes="cccsccscccsscscsssssscccccccssssssssssssscccccccccccssssssssssccccccsssssccccccsssccscsccccccccsscssssssssssscc" /><path
       id="path13"
       style="display:inline;opacity:1;fill:none;fill-opacity:1;fill-rule:nonzero;stroke:#7dc8fe;stroke-width:1.25;stroke-dasharray:none;stroke-opacity:1;filter:url(#filter13)"
       d="m 288.63595,55.7612 c -5.03388,8.696038 -9.69289,17.920949 -13.8604,27.036762 -0.68888,1.50683 -2.57485,2.846549 -4.2258,2.986263 C 268.99345,86.030943 267.88539,87.428442 268,89 v 38 c 0,1.65685 -0.0346,4.34326 -0.14957,5.99594 -0.20691,2.97472 -0.49422,6.01244 -0.0113,8.91814 0.27087,1.62965 1.09445,3.68235 1.76432,4.45115 3.00247,3.01486 4.82299,4.52443 6.16052,5.50182 1.21251,0.88602 3.34926,2.29947 4.76412,3.16143 0.0219,0.0133 0.0438,0.0267 0.0657,0.04 1.41566,0.86073 3.75539,2.18174 5.2161,2.96365 0.0852,0.0456 0.17054,0.0912 0.25595,0.13668 1.46227,0.77898 3.85666,1.99721 5.34206,2.73118 1.96849,0.97268 3.94188,1.91911 5.87858,2.84558 1.49452,0.71495 3.91752,1.87462 5.40571,2.60294 1.42542,0.69761 3.77513,1.87881 5.23632,2.65981 1.15215,0.61581 3.26214,1.76382 4.75339,2.48526 0.31615,0.15295 1.78866,0.85008 3.23919,1.65043 0.83854,0.46267 2.39505,1.40144 3.38742,2.20365 l 1.47852,1.44726 0.85351,1.55664 0.125,0.8125 -0.11126,0.83594 -0.54688,1.30859 -0.875,1.29297 c -2.36252,2.35115 -3.61893,3.37456 -4.9955,4.29557 -0.53919,0.36075 -2.1197,1.36025 -3.56295,2.17365 -0.7339,0.41361 -2.51793,1.37463 -3.99813,2.11892 -0.90701,0.45607 -1.81257,0.89812 -2.70129,1.32478 -1.49352,0.717 -3.92877,1.85078 -5.42529,2.56183 -0.30129,0.14316 -0.59422,0.28323 -0.87776,0.42012 -1.49161,0.72014 -3.84472,2.0169 -5.28559,2.83485 -3.12307,1.7729 -6.22534,3.58273 -9.32086,5.40353 -1.42809,0.84001 -3.74122,2.2058 -5.16807,3.04798 -3.09225,1.82516 -6.18574,3.64756 -9.29505,5.44281 -1.43482,0.82844 -3.7573,2.17901 -5.14487,3.084 -0.21323,0.13907 -0.4286,0.27965 -0.6459,0.42075 -1.3876,0.90107 -3.69726,2.293 -5.24002,2.89304 -0.23733,0.0923 -1.11429,0.41842 -1.99106,0.57973 v 60.72461 h 24.25195 c 1.65685,0 2.89267,-1.33958 2.83628,-2.99542 -0.0292,-0.85754 -0.0371,-2.57213 0.0699,-3.82098 l 0.3125,-2.15039 0.59766,-1.95508 0.95508,-1.67774 c 2.60189,-2.86353 4.13355,-4.23168 5.45914,-5.22476 7.71095,-5.77669 21.04356,-11.86768 26.78211,-14.36949 1.5179,-0.66175 4.01949,-1.64195 5.61155,-2.09972 14.56766,-4.18864 27.31809,0.0928 29.3718,9.1801 0.36429,1.61195 0.23396,4.32102 0.17573,5.97687 -0.0939,2.67024 -0.22844,6.66794 -0.31776,10.05948 -0.0436,1.65617 1.26764,2.866 2.91635,2.70192 l 44.80107,-4.45856 c 1.69464,-0.16865 2.98571,-1.59408 2.98631,-3.29709 l 0.0194,-54.98238 c 5.9e-4,-1.65685 -0.002,-4.34315 -0.0128,-5.99997 -0.0131,-1.9255 -0.0322,-4.34128 -0.0429,-6.9474 -0.007,-1.65679 -0.01,-4.34304 -0.004,-5.99988 0.003,-0.7025 0.006,-1.40284 0.0116,-2.09591 0.0125,-1.65681 0.0442,-3.21744 0.0488,-3.48613 l 0.10475,-3.25741 c 0.0532,-1.656 0.89056,-4.08169 1.86417,-5.42231 3.56137,-4.90386 11.70577,-16.22506 16.94631,-24.34284 0.89839,-1.39163 0.92615,-3.69359 0.0628,-5.1077 -7.68401,-12.58564 -16.79567,-24.00629 -26.52,-34.66295 -1.1168,-1.22388 -3.23277,-1.60439 -4.70434,-0.84307 -8.49638,4.39558 -16.77489,9.24483 -24.68887,14.3703 -1.39067,0.90066 -3.45985,0.6922 -4.6833,-0.4249 -3.43298,-3.13455 -7.10816,-5.92548 -10.78812,-8.72525 -1.3185,-1.00313 -3.42913,-2.66596 -4.77314,-3.63455 -3.71312,-2.67594 -7.67337,-4.93426 -11.55907,-7.31696 -1.41216,-0.86594 -2.36208,-2.92238 -2.15866,-4.56669 1.26654,-10.237705 1.96865,-20.383102 2.30977,-30.857985 0.0539,-1.655969 -1.11083,-3.605292 -2.60544,-4.320281 -12.53292,-5.995471 -25.75005,-10.199929 -39.13772,-13.331865 -1.61329,-0.377413 -3.61321,0.486536 -4.44326,1.920461 z m -65.2719,0 c 5.03388,8.696038 9.69289,17.920949 13.8604,27.036762 0.68888,1.50683 2.57485,2.846549 4.2258,2.986263 C 243.00655,86.030943 244.11461,87.428442 244,89 v 38 c 0,1.65685 0.0346,4.34326 0.14957,5.99594 0.20691,2.97472 0.49422,6.01244 0.0113,8.91814 -0.27087,1.62965 -1.09445,3.68235 -1.76432,4.45115 -3.00247,3.01486 -4.82299,4.52443 -6.16052,5.50182 -1.21251,0.88602 -3.34926,2.29947 -4.76412,3.16143 -0.0219,0.0133 -0.0438,0.0267 -0.0657,0.04 -1.41566,0.86073 -3.75539,2.18174 -5.2161,2.96365 -0.0852,0.0456 -0.17054,0.0912 -0.25595,0.13668 -1.46227,0.77898 -3.85666,1.99721 -5.34206,2.73118 -1.96849,0.97268 -3.94188,1.91911 -5.87858,2.84558 -1.49452,0.71495 -3.91752,1.87462 -5.40571,2.60294 -1.42542,0.69761 -3.77513,1.87881 -5.23632,2.65981 -1.15215,0.61581 -3.26214,1.76382 -4.75339,2.48526 -0.31615,0.15295 -1.78866,0.85008 -3.23919,1.65043 -0.83854,0.46267 -2.39505,1.40144 -3.38742,2.20365 l -1.47852,1.44726 -0.85351,1.55664 -0.125,0.8125 0.11126,0.83594 0.54688,1.30859 0.875,1.29297 c 2.36252,2.35115 3.61893,3.37456 4.9955,4.29557 0.53919,0.36075 2.1197,1.36025 3.56295,2.17365 0.7339,0.41361 2.51793,1.37463 3.99813,2.11892 0.90701,0.45607 1.81257,0.89812 2.70129,1.32478 1.49352,0.717 3.92877,1.85078 5.42529,2.56183 0.30129,0.14316 0.59422,0.28323 0.87776,0.42012 1.49161,0.72014 3.84472,2.0169 5.28559,2.83485 3.12307,1.7729 6.22534,3.58273 9.32086,5.40353 1.42809,0.84001 3.74122,2.2058 5.16807,3.04798 3.09225,1.82516 6.18574,3.64756 9.29505,5.44281 1.43482,0.82844 3.7573,2.17901 5.14487,3.084 0.21323,0.13907 0.4286,0.27965 0.6459,0.42075 1.3876,0.90107 3.69726,2.293 5.24002,2.89304 0.23733,0.0923 1.11429,0.41842 1.99106,0.57973 v 60.72461 h -24.25195 c -1.65685,0 -2.89267,-1.33958 -2.83628,-2.99542 0.0292,-0.85754 0.0371,-2.57213 -0.0699,-3.82098 l -0.3125,-2.15039 -0.59766,-1.95508 -0.95508,-1.67774 c -2.60189,-2.86353 -4.13355,-4.23168 -5.45914,-5.22476 -7.71095,-5.77669 -21.04356,-11.86768 -26.78211,-14.36949 -1.5179,-0.66175 -4.01949,-1.64195 -5.61155,-2.09972 -14.56766,-4.18864 -27.31809,0.0928 -29.3718,9.1801 -0.36429,1.61195 -0.23396,4.32102 -0.17573,5.97687 0.0939,2.67024 0.22844,6.66794 0.31776,10.05948 0.0436,1.65617 -1.26764,2.866 -2.91635,2.70192 l -44.80107,-4.45856 c -1.69464,-0.16865 -2.98571,-1.59408 -2.98631,-3.29709 l -0.0194,-54.98238 c -5.9e-4,-1.65685 0.002,-4.34315 0.0128,-5.99997 0.0131,-1.9255 0.0322,-4.34128 0.0429,-6.9474 0.007,-1.65679 0.01,-4.34304 0.004,-5.99988 -0.003,-0.7025 -0.006,-1.40284 -0.0116,-2.09591 -0.0125,-1.65681 -0.0442,-3.21744 -0.0488,-3.48613 l -0.10475,-3.25741 c -0.0532,-1.656 -0.89056,-4.08169 -1.86417,-5.42231 -3.56137,-4.90386 -11.70577,-16.22506 -16.94631,-24.34284 -0.89839,-1.39163 -0.92615,-3.69359 -0.0628,-5.1077 7.68401,-12.58564 16.79567,-24.00629 26.52,-34.66295 1.1168,-1.22388 3.23277,-1.60439 4.70434,-0.84307 8.49638,4.39558 16.77489,9.24483 24.68887,14.3703 1.39067,0.90066 3.45985,0.6922 4.6833,-0.4249 3.43298,-3.13455 7.10816,-5.92548 10.78812,-8.72525 1.3185,-1.00313 3.42913,-2.66596 4.77314,-3.63455 3.71312,-2.67594 7.67337,-4.93426 11.55907,-7.31696 1.41216,-0.86594 2.36208,-2.92238 2.15866,-4.56669 -1.26654,-10.237705 -1.96865,-20.383102 -2.30977,-30.857985 -0.0539,-1.655969 1.11083,-3.605292 2.60544,-4.320281 12.53292,-5.995471 25.75005,-10.199929 39.13772,-13.331865 1.61329,-0.377413 3.61321,0.486536 4.44326,1.920461 z"
       sodipodi:nodetypes="ccczsssssssssssssscsssssssssssscccccsssscccccccccccccccccccccccsscssssssssssscccsccssscsscscsssssscccccccsssssssssssssccssccccssssssssscccccccsscscssssssssscc"
       transform="translate(1.2443777e-6,16.974926)" /><path
       id="path40"
       style="display:inline;fill:#5ebcff;fill-opacity:1;stroke:none"
       d="m 178.09869,244.02361 c -9.82785,-0.13707 -17.38355,3.97555 -18.92383,10.79101 -0.17053,0.75458 -0.22052,1.7665 -0.23242,2.78125 0.0123,0.83779 0.0309,1.70242 0.0527,2.34961 0.0939,2.78831 0.22906,6.96242 0.31836,10.50391 3.8e-4,0.0149 -0.008,0.0262 -0.008,0.041 0.004,0.11872 0.009,0.23952 0.0117,0.36133 0.002,0.0799 0.004,0.14295 0,0.2207 -0.005,0.79247 -0.0411,2.5032 -0.0395,3.02344 2.3e-4,0.0975 0.0113,0.14192 0.0316,0.15317 0.10044,0.0559 0.44818,-0.29164 0.9683,-0.3133 1.83777,0.17769 4.37728,0.38741 5.47266,0.95703 2.81362,1.46318 3.33575,7.48144 3.56641,10.78711 l 0.84375,12.09961 c 0.23959,3.43356 2.96915,6.16907 6.40234,6.41406 l 35.60156,2.53906 c 3.37558,0.24087 6.36579,-2.15983 6.85938,-5.50781 l 1.52539,-10.3457 c 0.48331,-3.27827 0.92696,-6.34361 1.07617,-6.82422 0.56411,-1.81712 2.10469,-2.97491 2.31445,-3.11719 1.5745,-1.06797 3.36293,-1.00977 3.73438,-1.00977 0.26644,0 0.3177,0.0156 0.43945,-0.0371 0.12175,-0.0528 0.21873,-0.17842 0.21873,-0.17842 0,0 -0.0242,-1.67204 0.002,-2.78056 9.1e-4,-0.0267 -0.002,-0.62305 -0.002,-0.62305 0,0 -0.002,0.49591 -0.002,0.49221 0.014,-0.42866 -0.0271,-1.22278 -0.0332,-1.91016 -0.01,-0.64991 0.0166,-1.19765 -0.0332,-1.77929 l -0.3125,-2.15039 -0.59765,-1.95508 -0.95508,-1.67774 c -2.60189,-2.86351 -4.1334,-4.23153 -5.45899,-5.22461 -7.71094,-5.77667 -21.04271,-11.86733 -26.78125,-14.36914 -1.5179,-0.66174 -4.02123,-1.64184 -5.61328,-2.09961 -3.64191,-1.04715 -7.17131,-1.56563 -10.44726,-1.61132 z m 155.77343,0 c 9.82785,-0.13707 17.38355,3.97555 18.92383,10.79101 0.17053,0.75458 0.22052,1.7665 0.23242,2.78125 -0.0123,0.83779 -0.0309,1.70242 -0.0527,2.34961 -0.0939,2.78831 -0.22906,6.96242 -0.31836,10.50391 -3.8e-4,0.0149 0.008,0.0262 0.008,0.041 -0.004,0.11872 -0.009,0.23952 -0.0117,0.36133 -0.002,0.0799 -0.004,0.14295 0,0.2207 0.005,0.79247 0.0411,2.5032 0.0395,3.02344 -2.3e-4,0.0975 -0.0113,0.14192 -0.0316,0.15317 -0.10044,0.0559 -0.44818,-0.29164 -0.9683,-0.3133 -1.83777,0.17769 -4.37728,0.38741 -5.47266,0.95703 -2.81362,1.46318 -3.33575,7.48144 -3.56641,10.78711 l -0.84375,12.09961 c -0.23959,3.43356 -2.96915,6.16907 -6.40234,6.41406 l -35.60156,2.53906 c -3.37558,0.24087 -6.36579,-2.15983 -6.85938,-5.50781 l -1.52539,-10.3457 c -0.48331,-3.27827 -0.92696,-6.34361 -1.07617,-6.82422 -0.56411,-1.81712 -2.10469,-2.97491 -2.31445,-3.11719 -1.5745,-1.06797 -3.36293,-1.00977 -3.73438,-1.00977 -0.26644,0 -0.3177,0.0156 -0.43945,-0.0371 -0.12175,-0.0528 -0.21873,-0.17842 -0.21873,-0.17842 0,0 0.0242,-1.67204 -0.002,-2.78056 -9.1e-4,-0.0267 0.002,-0.62305 0.002,-0.62305 0,0 0.002,0.49591 0.002,0.49221 -0.014,-0.42866 0.0271,-1.22278 0.0332,-1.91016 0.01,-0.64991 -0.0166,-1.19765 0.0332,-1.77929 l 0.3125,-2.15039 0.59765,-1.95508 0.95508,-1.67774 c 2.60189,-2.86351 4.1334,-4.23153 5.45899,-5.22461 7.71094,-5.77667 21.04271,-11.86733 26.78125,-14.36914 1.5179,-0.66174 4.02123,-1.64184 5.61328,-2.09961 3.64191,-1.04715 7.17131,-1.56563 10.44726,-1.61132 z"
       transform="translate(0.014595,16.97444)"
       sodipodi:nodetypes="cscsscccszcsccccccssszcccccccccssscc" /><path
       id="path11"
       style="display:inline;opacity:1;fill:#5ebcff;fill-opacity:1;fill-rule:nonzero;stroke:none;stroke-width:1.25;stroke-dasharray:none;stroke-opacity:1"
       d="m 288.63595,55.7612 c -5.03388,8.696038 -9.69289,17.920949 -13.8604,27.036762 -0.68888,1.50683 -2.57485,2.846549 -4.2258,2.986263 C 268.99345,86.030943 267.88539,87.428442 268,89 v 38 c 0,1.65685 -0.0346,4.34326 -0.14957,5.99594 -0.20691,2.97472 -0.49422,6.01244 -0.0113,8.91814 0.27087,1.62965 1.09445,3.68235 1.76432,4.45115 3.00247,3.01486 4.82299,4.52443 6.16052,5.50182 1.21251,0.88602 3.34926,2.29947 4.76412,3.16143 0.0219,0.0133 0.0438,0.0267 0.0657,0.04 1.41566,0.86073 3.75539,2.18174 5.2161,2.96365 0.0852,0.0456 0.17054,0.0912 0.25595,0.13668 1.46227,0.77898 3.85666,1.99721 5.34206,2.73118 1.96849,0.97268 3.94188,1.91911 5.87858,2.84558 1.49452,0.71495 3.91752,1.87462 5.40571,2.60294 1.42542,0.69761 3.77513,1.87881 5.23632,2.65981 1.15215,0.61581 3.26214,1.76382 4.75339,2.48526 0.31615,0.15295 1.78866,0.85008 3.23919,1.65043 0.83854,0.46267 2.39505,1.40144 3.38742,2.20365 l 1.47852,1.44726 0.85351,1.55664 0.125,0.8125 -0.11126,0.83594 -0.54688,1.30859 -0.875,1.29297 c -2.36252,2.35115 -3.61893,3.37456 -4.9955,4.29557 -0.53919,0.36075 -2.1197,1.36025 -3.56295,2.17365 -0.7339,0.41361 -2.51793,1.37463 -3.99813,2.11892 -0.90701,0.45607 -1.81257,0.89812 -2.70129,1.32478 -1.49352,0.717 -3.92877,1.85078 -5.42529,2.56183 -0.30129,0.14316 -0.59422,0.28323 -0.87776,0.42012 -1.49161,0.72014 -3.84472,2.0169 -5.28559,2.83485 -3.12307,1.7729 -6.22534,3.58273 -9.32086,5.40353 -1.42809,0.84001 -3.74122,2.2058 -5.16807,3.04798 -3.09225,1.82516 -6.18574,3.64756 -9.29505,5.44281 -1.43482,0.82844 -3.7573,2.17901 -5.14487,3.084 -0.21323,0.13907 -0.4286,0.27965 -0.6459,0.42075 -1.3876,0.90107 -3.69726,2.293 -5.24002,2.89304 -0.23733,0.0923 -1.11429,0.41842 -1.99106,0.57973 v 60.72461 h 24.25195 c 1.65685,0 2.89267,-1.33958 2.83628,-2.99542 -0.0292,-0.85754 -0.0371,-2.57213 0.0699,-3.82098 l 0.3125,-2.15039 0.59766,-1.95508 0.95508,-1.67774 c 2.60189,-2.86353 4.13355,-4.23168 5.45914,-5.22476 7.71095,-5.77669 21.04356,-11.86768 26.78211,-14.36949 1.5179,-0.66175 4.01949,-1.64195 5.61155,-2.09972 14.56766,-4.18864 27.31809,0.0928 29.3718,9.1801 0.36429,1.61195 0.23396,4.32102 0.17573,5.97687 -0.0939,2.67024 -0.22844,6.66794 -0.31776,10.05948 -0.0436,1.65617 1.26764,2.866 2.91635,2.70192 l 44.80107,-4.45856 c 1.69464,-0.16865 2.98571,-1.59408 2.98631,-3.29709 l 0.0194,-54.98238 c 5.9e-4,-1.65685 -0.002,-4.34315 -0.0128,-5.99997 -0.0131,-1.9255 -0.0322,-4.34128 -0.0429,-6.9474 -0.007,-1.65679 -0.01,-4.34304 -0.004,-5.99988 0.003,-0.7025 0.006,-1.40284 0.0116,-2.09591 0.0125,-1.65681 0.0442,-3.21744 0.0488,-3.48613 l 0.10475,-3.25741 c 0.0532,-1.656 0.89056,-4.08169 1.86417,-5.42231 3.56137,-4.90386 11.70577,-16.22506 16.94631,-24.34284 0.89839,-1.39163 0.92615,-3.69359 0.0628,-5.1077 -7.68401,-12.58564 -16.79567,-24.00629 -26.52,-34.66295 -1.1168,-1.22388 -3.23277,-1.60439 -4.70434,-0.84307 -8.49638,4.39558 -16.77489,9.24483 -24.68887,14.3703 -1.39067,0.90066 -3.45985,0.6922 -4.6833,-0.4249 -3.43298,-3.13455 -7.10816,-5.92548 -10.78812,-8.72525 -1.3185,-1.00313 -3.42913,-2.66596 -4.77314,-3.63455 -3.71312,-2.67594 -7.67337,-4.93426 -11.55907,-7.31696 -1.41216,-0.86594 -2.36208,-2.92238 -2.15866,-4.56669 1.26654,-10.237705 1.96865,-20.383102 2.30977,-30.857985 0.0539,-1.655969 -1.11083,-3.605292 -2.60544,-4.320281 -12.53292,-5.995471 -25.75005,-10.199929 -39.13772,-13.331865 -1.61329,-0.377413 -3.61321,0.486536 -4.44326,1.920461 z m -65.2719,0 c 5.03388,8.696038 9.69289,17.920949 13.8604,27.036762 0.68888,1.50683 2.57485,2.846549 4.2258,2.986263 C 243.00655,86.030943 244.11461,87.428442 244,89 v 38 c 0,1.65685 0.0346,4.34326 0.14957,5.99594 0.20691,2.97472 0.49422,6.01244 0.0113,8.91814 -0.27087,1.62965 -1.09445,3.68235 -1.76432,4.45115 -3.00247,3.01486 -4.82299,4.52443 -6.16052,5.50182 -1.21251,0.88602 -3.34926,2.29947 -4.76412,3.16143 -0.0219,0.0133 -0.0438,0.0267 -0.0657,0.04 -1.41566,0.86073 -3.75539,2.18174 -5.2161,2.96365 -0.0852,0.0456 -0.17054,0.0912 -0.25595,0.13668 -1.46227,0.77898 -3.85666,1.99721 -5.34206,2.73118 -1.96849,0.97268 -3.94188,1.91911 -5.87858,2.84558 -1.49452,0.71495 -3.91752,1.87462 -5.40571,2.60294 -1.42542,0.69761 -3.77513,1.87881 -5.23632,2.65981 -1.15215,0.61581 -3.26214,1.76382 -4.75339,2.48526 -0.31615,0.15295 -1.78866,0.85008 -3.23919,1.65043 -0.83854,0.46267 -2.39505,1.40144 -3.38742,2.20365 l -1.47852,1.44726 -0.85351,1.55664 -0.125,0.8125 0.11126,0.83594 0.54688,1.30859 0.875,1.29297 c 2.36252,2.35115 3.61893,3.37456 4.9955,4.29557 0.53919,0.36075 2.1197,1.36025 3.56295,2.17365 0.7339,0.41361 2.51793,1.37463 3.99813,2.11892 0.90701,0.45607 1.81257,0.89812 2.70129,1.32478 1.49352,0.717 3.92877,1.85078 5.42529,2.56183 0.30129,0.14316 0.59422,0.28323 0.87776,0.42012 1.49161,0.72014 3.84472,2.0169 5.28559,2.83485 3.12307,1.7729 6.22534,3.58273 9.32086,5.40353 1.42809,0.84001 3.74122,2.2058 5.16807,3.04798 3.09225,1.82516 6.18574,3.64756 9.29505,5.44281 1.43482,0.82844 3.7573,2.17901 5.14487,3.084 0.21323,0.13907 0.4286,0.27965 0.6459,0.42075 1.3876,0.90107 3.69726,2.293 5.24002,2.89304 0.23733,0.0923 1.11429,0.41842 1.99106,0.57973 v 60.72461 h -24.25195 c -1.65685,0 -2.89267,-1.33958 -2.83628,-2.99542 0.0292,-0.85754 0.0371,-2.57213 -0.0699,-3.82098 l -0.3125,-2.15039 -0.59766,-1.95508 -0.95508,-1.67774 c -2.60189,-2.86353 -4.13355,-4.23168 -5.45914,-5.22476 -7.71095,-5.77669 -21.04356,-11.86768 -26.78211,-14.36949 -1.5179,-0.66175 -4.01949,-1.64195 -5.61155,-2.09972 -14.56766,-4.18864 -27.31809,0.0928 -29.3718,9.1801 -0.36429,1.61195 -0.23396,4.32102 -0.17573,5.97687 0.0939,2.67024 0.22844,6.66794 0.31776,10.05948 0.0436,1.65617 -1.26764,2.866 -2.91635,2.70192 l -44.80107,-4.45856 c -1.69464,-0.16865 -2.98571,-1.59408 -2.98631,-3.29709 l -0.0194,-54.98238 c -5.9e-4,-1.65685 0.002,-4.34315 0.0128,-5.99997 0.0131,-1.9255 0.0322,-4.34128 0.0429,-6.9474 0.007,-1.65679 0.01,-4.34304 0.004,-5.99988 -0.003,-0.7025 -0.006,-1.40284 -0.0116,-2.09591 -0.0125,-1.65681 -0.0442,-3.21744 -0.0488,-3.48613 l -0.10475,-3.25741 c -0.0532,-1.656 -0.89056,-4.08169 -1.86417,-5.42231 -3.56137,-4.90386 -11.70577,-16.22506 -16.94631,-24.34284 -0.89839,-1.39163 -0.92615,-3.69359 -0.0628,-5.1077 7.68401,-12.58564 16.79567,-24.00629 26.52,-34.66295 1.1168,-1.22388 3.23277,-1.60439 4.70434,-0.84307 8.49638,4.39558 16.77489,9.24483 24.68887,14.3703 1.39067,0.90066 3.45985,0.6922 4.6833,-0.4249 3.43298,-3.13455 7.10816,-5.92548 10.78812,-8.72525 1.3185,-1.00313 3.42913,-2.66596 4.77314,-3.63455 3.71312,-2.67594 7.67337,-4.93426 11.55907,-7.31696 1.41216,-0.86594 2.36208,-2.92238 2.15866,-4.56669 -1.26654,-10.237705 -1.96865,-20.383102 -2.30977,-30.857985 -0.0539,-1.655969 1.11083,-3.605292 2.60544,-4.320281 12.53292,-5.995471 25.75005,-10.199929 39.13772,-13.331865 1.61329,-0.377413 3.61321,0.486536 4.44326,1.920461 z"
       sodipodi:nodetypes="ccczsssssssssssssscsssssssssssscccccsssscccccccccccccccccccccccsscssssssssssscccsccssscsscscsssssscccccccsssssssssssssccssccccssssssssscccccccsscscssssssssscc"
       transform="translate(1.2443777e-6,16.974926)" /><g
       id="g18"
       transform="translate(1.2443777e-6,24.974926)"
       style="display:inline"><path
         id="path39"
         style="display:none;opacity:1;fill:#5ebcff;fill-opacity:1;fill-rule:nonzero;stroke:none;stroke-width:0.482557;stroke-opacity:0.619608"
         d="m 288.63595,55.7612 c -5.03388,8.696038 -9.69289,17.920949 -13.8604,27.036762 -0.68888,1.50683 -2.57485,2.846549 -4.2258,2.986263 C 268.99345,86.030943 267.88539,87.428442 268,89 v 38 c 0,1.65685 -0.0346,4.34326 -0.14957,5.99594 -0.20691,2.97472 -0.49422,6.01244 -0.0113,8.91814 0.27087,1.62965 1.09445,3.68235 1.76432,4.45115 3.00247,3.01486 4.82299,4.52443 6.16052,5.50182 1.21251,0.88602 3.34926,2.29947 4.76412,3.16143 0.0219,0.0133 0.0438,0.0267 0.0657,0.04 1.41566,0.86073 3.75539,2.18174 5.2161,2.96365 0.0852,0.0456 0.17054,0.0912 0.25595,0.13668 1.46227,0.77898 3.85666,1.99721 5.34206,2.73118 1.96849,0.97268 3.94188,1.91911 5.87858,2.84558 1.49452,0.71495 3.91752,1.87462 5.40571,2.60294 1.42542,0.69761 3.77513,1.87881 5.23632,2.65981 1.15215,0.61581 3.26214,1.76382 4.75339,2.48526 0.31615,0.15295 1.78866,0.85008 3.23919,1.65043 0.83854,0.46267 2.39505,1.40144 3.38742,2.20365 l 1.47852,1.44726 0.85351,1.55664 0.125,0.8125 -0.11126,0.83594 -0.54688,1.30859 -0.875,1.29297 c -2.36252,2.35115 -3.61893,3.37456 -4.9955,4.29557 -0.53919,0.36075 -2.1197,1.36025 -3.56295,2.17365 -0.7339,0.41361 -2.51793,1.37463 -3.99813,2.11892 -0.90701,0.45607 -1.81257,0.89812 -2.70129,1.32478 -1.49352,0.717 -3.92877,1.85078 -5.42529,2.56183 -0.30129,0.14316 -0.59422,0.28323 -0.87776,0.42012 -1.49161,0.72014 -3.84472,2.0169 -5.28559,2.83485 -3.12307,1.7729 -6.22534,3.58273 -9.32086,5.40353 -1.42809,0.84001 -3.74122,2.2058 -5.16807,3.04798 -3.09225,1.82516 -6.18574,3.64756 -9.29505,5.44281 -1.43482,0.82844 -3.7573,2.17901 -5.14487,3.084 -0.21323,0.13907 -0.4286,0.27965 -0.6459,0.42075 -1.3876,0.90107 -3.69726,2.293 -5.24002,2.89304 -0.23733,0.0923 -1.11429,0.41842 -1.99106,0.57973 v 60.72461 h 24.25195 c 1.65685,0 2.89267,-1.33958 2.83628,-2.99542 -0.0292,-0.85754 -0.0371,-2.57213 0.0699,-3.82098 l 0.3125,-2.15039 0.59766,-1.95508 0.95508,-1.67774 c 2.60189,-2.86353 4.13355,-4.23168 5.45914,-5.22476 7.71095,-5.77669 21.04356,-11.86768 26.78211,-14.36949 1.5179,-0.66175 4.01949,-1.64195 5.61155,-2.09972 14.56766,-4.18864 27.31809,0.0928 29.3718,9.1801 0.36429,1.61195 0.23396,4.32102 0.17573,5.97687 -0.0939,2.67024 -0.22844,6.66794 -0.31776,10.05948 -0.0436,1.65617 1.26764,2.866 2.91635,2.70192 l 44.80107,-4.45856 c 1.69464,-0.16865 2.98571,-1.59408 2.98631,-3.29709 l 0.0194,-54.98238 c 5.9e-4,-1.65685 -0.002,-4.34315 -0.0128,-5.99997 -0.0131,-1.9255 -0.0322,-4.34128 -0.0429,-6.9474 -0.007,-1.65679 -0.01,-4.34304 -0.004,-5.99988 0.003,-0.7025 0.006,-1.40284 0.0116,-2.09591 0.0125,-1.65681 0.0442,-3.21744 0.0488,-3.48613 l 0.10475,-3.25741 c 0.0532,-1.656 0.89056,-4.08169 1.86417,-5.42231 3.56137,-4.90386 11.70577,-16.22506 16.94631,-24.34284 0.89839,-1.39163 0.92615,-3.69359 0.0628,-5.1077 -7.68401,-12.58564 -16.79567,-24.00629 -26.52,-34.66295 -1.1168,-1.22388 -3.23277,-1.60439 -4.70434,-0.84307 -8.49638,4.39558 -16.77489,9.24483 -24.68887,14.3703 -1.39067,0.90066 -3.45985,0.6922 -4.6833,-0.4249 -3.43298,-3.13455 -7.10816,-5.92548 -10.78812,-8.72525 -1.3185,-1.00313 -3.42913,-2.66596 -4.77314,-3.63455 -3.71312,-2.67594 -7.67337,-4.93426 -11.55907,-7.31696 -1.41216,-0.86594 -2.36208,-2.92238 -2.15866,-4.56669 1.26654,-10.237705 1.96865,-20.383102 2.30977,-30.857985 0.0539,-1.655969 -1.11083,-3.605292 -2.60544,-4.320281 -12.53292,-5.995471 -25.75005,-10.199929 -39.13772,-13.331865 -1.61329,-0.377413 -3.61321,0.486536 -4.44326,1.920461 z m -65.2719,0 c 5.03388,8.696038 9.69289,17.920949 13.8604,27.036762 0.68888,1.50683 2.57485,2.846549 4.2258,2.986263 C 243.00655,86.030943 244.11461,87.428442 244,89 v 38 c 0,1.65685 0.0346,4.34326 0.14957,5.99594 0.20691,2.97472 0.49422,6.01244 0.0113,8.91814 -0.27087,1.62965 -1.09445,3.68235 -1.76432,4.45115 -3.00247,3.01486 -4.82299,4.52443 -6.16052,5.50182 -1.21251,0.88602 -3.34926,2.29947 -4.76412,3.16143 -0.0219,0.0133 -0.0438,0.0267 -0.0657,0.04 -1.41566,0.86073 -3.75539,2.18174 -5.2161,2.96365 -0.0852,0.0456 -0.17054,0.0912 -0.25595,0.13668 -1.46227,0.77898 -3.85666,1.99721 -5.34206,2.73118 -1.96849,0.97268 -3.94188,1.91911 -5.87858,2.84558 -1.49452,0.71495 -3.91752,1.87462 -5.40571,2.60294 -1.42542,0.69761 -3.77513,1.87881 -5.23632,2.65981 -1.15215,0.61581 -3.26214,1.76382 -4.75339,2.48526 -0.31615,0.15295 -1.78866,0.85008 -3.23919,1.65043 -0.83854,0.46267 -2.39505,1.40144 -3.38742,2.20365 l -1.47852,1.44726 -0.85351,1.55664 -0.125,0.8125 0.11126,0.83594 0.54688,1.30859 0.875,1.29297 c 2.36252,2.35115 3.61893,3.37456 4.9955,4.29557 0.53919,0.36075 2.1197,1.36025 3.56295,2.17365 0.7339,0.41361 2.51793,1.37463 3.99813,2.11892 0.90701,0.45607 1.81257,0.89812 2.70129,1.32478 1.49352,0.717 3.92877,1.85078 5.42529,2.56183 0.30129,0.14316 0.59422,0.28323 0.87776,0.42012 1.49161,0.72014 3.84472,2.0169 5.28559,2.83485 3.12307,1.7729 6.22534,3.58273 9.32086,5.40353 1.42809,0.84001 3.74122,2.2058 5.16807,3.04798 3.09225,1.82516 6.18574,3.64756 9.29505,5.44281 1.43482,0.82844 3.7573,2.17901 5.14487,3.084 0.21323,0.13907 0.4286,0.27965 0.6459,0.42075 1.3876,0.90107 3.69726,2.293 5.24002,2.89304 0.23733,0.0923 1.11429,0.41842 1.99106,0.57973 v 60.72461 h -24.25195 c -1.65685,0 -2.89267,-1.33958 -2.83628,-2.99542 0.0292,-0.85754 0.0371,-2.57213 -0.0699,-3.82098 l -0.3125,-2.15039 -0.59766,-1.95508 -0.95508,-1.67774 c -2.60189,-2.86353 -4.13355,-4.23168 -5.45914,-5.22476 -7.71095,-5.77669 -21.04356,-11.86768 -26.78211,-14.36949 -1.5179,-0.66175 -4.01949,-1.64195 -5.61155,-2.09972 -14.56766,-4.18864 -27.31809,0.0928 -29.3718,9.1801 -0.36429,1.61195 -0.23396,4.32102 -0.17573,5.97687 0.0939,2.67024 0.22844,6.66794 0.31776,10.05948 0.0436,1.65617 -1.26764,2.866 -2.91635,2.70192 l -44.80107,-4.45856 c -1.69464,-0.16865 -2.98571,-1.59408 -2.98631,-3.29709 l -0.0194,-54.98238 c -5.9e-4,-1.65685 0.002,-4.34315 0.0128,-5.99997 0.0131,-1.9255 0.0322,-4.34128 0.0429,-6.9474 0.007,-1.65679 0.01,-4.34304 0.004,-5.99988 -0.003,-0.7025 -0.006,-1.40284 -0.0116,-2.09591 -0.0125,-1.65681 -0.0442,-3.21744 -0.0488,-3.48613 l -0.10475,-3.25741 c -0.0532,-1.656 -0.89056,-4.08169 -1.86417,-5.42231 -3.56137,-4.90386 -11.70577,-16.22506 -16.94631,-24.34284 -0.89839,-1.39163 -0.92615,-3.69359 -0.0628,-5.1077 7.68401,-12.58564 16.79567,-24.00629 26.52,-34.66295 1.1168,-1.22388 3.23277,-1.60439 4.70434,-0.84307 8.49638,4.39558 16.77489,9.24483 24.68887,14.3703 1.39067,0.90066 3.45985,0.6922 4.6833,-0.4249 3.43298,-3.13455 7.10816,-5.92548 10.78812,-8.72525 1.3185,-1.00313 3.42913,-2.66596 4.77314,-3.63455 3.71312,-2.67594 7.67337,-4.93426 11.55907,-7.31696 1.41216,-0.86594 2.36208,-2.92238 2.15866,-4.56669 -1.26654,-10.237705 -1.96865,-20.383102 -2.30977,-30.857985 -0.0539,-1.655969 1.11083,-3.605292 2.60544,-4.320281 12.53292,-5.995471 25.75005,-10.199929 39.13772,-13.331865 1.61329,-0.377413 3.61321,0.486536 4.44326,1.920461 z"
         sodipodi:nodetypes="ccczsssssssssssssscsssssssssssscccccsssscccccccccccccccc" /><g
         id="g10"
         style="display:inline;opacity:1"
         transform="matrix(0.55172413,0,0,0.55172413,-26.482756,-579.59708)"><g
           id="g16"><path
             d="m 592.70557,1443.046 c 0,33.0174 26.75197,59.7639 59.76387,59.7639 32.98724,0 59.74468,-26.7465 59.74468,-59.7639 0,-32.9955 -26.75744,-59.7283 -59.74468,-59.7283 -33.0119,0 -59.76387,26.7328 -59.76387,59.7283 m -161.41114,0 c 0,33.0174 -26.75197,59.7639 -59.76387,59.7639 -32.98724,0 -59.74468,-26.7465 -59.74468,-59.7639 0,-32.9955 26.75744,-59.7283 59.74468,-59.7283 33.0119,0 59.76387,26.7328 59.76387,59.7283"
             style="display:inline;fill:#ffffff;fill-opacity:1;fill-rule:nonzero;stroke:#5ebcff;stroke-width:3.625;stroke-dasharray:none;stroke-opacity:1"
             id="path104-7"
             inkscape:connector-curvature="0" /><path
             d="m 607.08821,1446.5906 c 0,21.9002 17.74424,39.6499 39.64441,39.6499 21.9221,0 39.66634,-17.7497 39.66634,-39.6499 0,-21.9002 -17.74424,-39.6663 -39.66634,-39.6663 -21.90017,0 -39.64441,17.7661 -39.64441,39.6663 m -190.17642,0 c 0,21.9002 -17.74424,39.6499 -39.64441,39.6499 -21.9221,0 -39.66634,-17.7497 -39.66634,-39.6499 0,-21.9002 17.74424,-39.6663 39.66634,-39.6663 21.90017,0 39.64441,17.7661 39.64441,39.6663"
             style="fill:#2d2d40;fill-opacity:1;fill-rule:nonzero;stroke:none;stroke-width:0.877519"
             id="path108-9"
             inkscape:connector-curvature="0" /></g></g><path
         d="m 511.89025,1508.2469 c -10.62408,0 -19.23457,-7.8297 -19.23457,-17.4812 v -55.0135 c 0,-9.6433 8.61049,-17.4812 19.23457,-17.4812 10.62408,0 19.25375,7.8379 19.25375,17.4812 v 55.0135 c 0,9.6515 -8.62967,17.4812 -19.25375,17.4812"
         style="display:inline;opacity:1;fill:#ffffff;fill-opacity:1;fill-rule:nonzero;stroke:none;stroke-width:0.877519;stroke-opacity:1"
         id="path100-1"
         inkscape:connector-curvature="0"
         transform="matrix(0.55172413,0,0,0.55172413,-26.482756,-579.59708)" /><path
         d="m 511.89025,1508.2469 c -10.62408,0 -19.23457,-7.8297 -19.23457,-17.4812 v -55.0135 c 0,-9.6433 8.61049,-17.4812 19.23457,-17.4812 10.62408,0 19.25375,7.8379 19.25375,17.4812 v 55.0135 c 0,9.6515 -8.62967,17.4812 -19.25375,17.4812"
         style="display:inline;opacity:1;fill:none;fill-opacity:1;fill-rule:nonzero;stroke:#5ebcff;stroke-width:0.877519;stroke-opacity:1"
         id="path9"
         inkscape:connector-curvature="0"
         transform="matrix(0.55172413,0,0,0.55172413,-26.482756,-579.59708)" /><path
         d="m 511.89025,1508.2469 c -10.62408,0 -19.23457,-7.8297 -19.23457,-17.4812 v -55.0135 c 0,-9.6433 8.61049,-17.4812 19.23457,-17.4812 10.62408,0 19.25375,7.8379 19.25375,17.4812 v 55.0135 c 0,9.6515 -8.62967,17.4812 -19.25375,17.4812"
         style="display:inline;opacity:1;fill:none;fill-opacity:1;fill-rule:nonzero;stroke:#5ebcff;stroke-width:0.877519;stroke-opacity:1;filter:url(#filter9)"
         id="path10"
         inkscape:connector-curvature="0"
         transform="matrix(0.55172413,0,0,0.55172413,-26.482756,-579.59708)" /><path
         id="rect43"
         style="display:inline;opacity:1;fill:#5ebcff;fill-opacity:1;stroke-width:3.66331;stroke-linecap:round;stroke-linejoin:round;filter:url(#filter5)"
         d="m 255.20786,252.53912 h 1.58429 l 0.2098,172.77924 -1.00195,0.40758 -1.00195,-0.40758 z"
         sodipodi:nodetypes="cccccc" /></g></g></svg>
